<svg width="126" height="185" viewBox="0 0 126 185" fill="none" xmlns="http://www.w3.org/2000/svg">
<path d="M119.287 132.569C113.359 140.327 97.9108 137.641 97.9108 137.641L97.7753 85.1977L97.7482 74.6044C97.7482 74.6044 106.556 74.8423 113.25 77.6165C116.475 78.9491 119.212 80.8801 120.229 83.6543C123.786 93.2889 124.152 126.191 119.28 132.569H119.287Z" fill="white"/>
<g opacity="0.35">
<path d="M122.905 105.534C123.115 117.032 122.031 128.985 119.294 132.568C113.365 140.326 97.9175 137.641 97.9175 137.641L97.7549 74.6111C97.7549 74.6111 97.9175 74.6111 98.2224 74.6315L98.3443 123.777C98.3443 123.777 113.792 126.469 119.721 118.705C121.326 116.604 122.363 111.62 122.905 105.534Z" fill="black"/>
</g>
<path d="M103.988 139.211C100.574 139.211 97.9853 138.776 97.7279 138.735C97.1316 138.633 96.7251 138.062 96.8335 137.457C96.9352 136.859 97.5043 136.451 98.1073 136.553C98.2563 136.58 112.966 139.035 118.42 131.895C122.925 126 122.824 93.8191 119.212 84.0349C116.36 76.3041 97.9176 75.7126 97.7279 75.7058C97.1181 75.6922 96.637 75.1822 96.6574 74.5703C96.6709 73.9583 97.1791 73.4756 97.7888 73.496C98.6087 73.5164 117.905 74.1419 121.279 83.2666C123.007 87.9377 124.111 98.4155 124.037 109.335C123.996 115.053 123.535 128.836 120.175 133.235C116.387 138.191 109.219 139.205 103.995 139.205L103.988 139.211Z" fill="black"/>
<path d="M121.767 110.369L111.238 111.164C110.296 111.232 109.524 111.932 109.354 112.864C108.738 116.27 107.728 124.219 111.035 126.843C113.779 129.019 118.23 128.768 120.838 126.551C123.759 124.076 124.043 116.284 123.996 112.422C123.982 111.225 122.959 110.287 121.767 110.375V110.369Z" fill="white"/>
<g opacity="0.35">
<path d="M109.361 112.857C108.745 116.264 107.735 124.212 111.041 126.83C113.785 129.006 118.237 128.754 120.845 126.538C122.641 125.014 123.44 121.479 123.772 118.086C123.298 119.779 122.553 121.159 121.624 122.057C116.319 127.231 112.356 121.132 112.356 121.132C112.356 121.132 111.671 122.614 111.123 122.696C108.833 123.049 109.307 115.849 109.639 112.13C109.503 112.347 109.409 112.585 109.361 112.85V112.857Z" fill="black"/>
</g>
<path d="M115.676 129.448C113.738 129.448 111.827 128.87 110.357 127.7C106.712 124.804 107.491 117.032 108.277 112.66C108.535 111.232 109.72 110.165 111.163 110.056L121.692 109.26C122.56 109.199 123.434 109.498 124.077 110.09C124.721 110.681 125.093 111.525 125.107 112.395C125.175 117.8 124.612 124.79 121.564 127.381C119.951 128.754 117.803 129.448 115.689 129.448H115.676ZM121.929 111.463C121.929 111.463 121.882 111.463 121.855 111.463L111.326 112.259C110.886 112.293 110.527 112.619 110.445 113.048C109.273 119.561 109.747 124.389 111.719 125.96C113.982 127.761 117.83 127.632 120.127 125.688C121.943 124.144 122.973 119.187 122.892 112.415C122.892 112.143 122.776 111.892 122.58 111.708C122.397 111.545 122.167 111.45 121.929 111.45V111.463Z" fill="black"/>
<path d="M113.338 114.89C113.46 116.216 113.453 117.481 113.541 118.732C113.623 119.983 113.765 121.214 114.077 122.363C114.382 123.512 114.863 124.586 115.574 125.382C116.279 126.191 117.22 126.694 118.284 126.946C118.874 127.088 119.246 127.68 119.104 128.278C118.962 128.87 118.372 129.244 117.776 129.101C117.749 129.101 117.722 129.087 117.702 129.08C117.004 128.863 116.319 128.557 115.696 128.142C115.073 127.727 114.517 127.211 114.063 126.619C113.155 125.436 112.688 124.063 112.424 122.737C112.166 121.397 112.105 120.071 112.105 118.773C112.105 117.474 112.193 116.182 112.159 114.965V114.952C112.153 114.625 112.403 114.36 112.728 114.353C113.04 114.346 113.298 114.584 113.325 114.884L113.338 114.89Z" fill="black"/>
<path d="M115.554 83.3006C114.585 83.3822 113.602 83.4978 112.627 83.6338C111.651 83.7698 110.682 83.933 109.72 84.1166C108.758 84.3001 107.796 84.5041 106.847 84.7421C105.899 84.9665 104.964 85.2384 104.036 85.524H104.015C103.433 85.7076 102.816 85.3744 102.64 84.7897C102.464 84.2049 102.796 83.5862 103.378 83.4094C103.412 83.3958 103.453 83.389 103.494 83.3822C104.496 83.1918 105.492 83.0083 106.502 82.8791C107.505 82.7431 108.507 82.6343 109.51 82.5527C110.513 82.4711 111.516 82.4099 112.518 82.3759C113.521 82.3419 114.517 82.3283 115.54 82.3555C115.804 82.3555 116.008 82.5799 116.001 82.8451C116.001 83.0899 115.804 83.287 115.567 83.3074H115.554V83.3006Z" fill="black"/>
<g opacity="0.35">
<path d="M113.257 77.6165C108.643 81.1385 103.372 83.7087 97.782 85.1977L97.7549 74.6044C97.7549 74.6044 106.563 74.8423 113.257 77.6165Z" fill="black"/>
</g>
<path d="M77.2256 171.671C72.7268 182.135 53.451 180.415 48.5863 176.084C43.5996 171.644 52.6108 166.096 52.6108 166.096C48.593 159.242 48.4711 146.167 48.8912 137.77C49.1215 133.167 49.5145 129.971 49.5145 129.971L77.9235 114.543C77.9032 120.35 76.9343 125.307 76.0671 129.284C74.2242 137.736 74.3393 144.236 75.0914 149.553C76.4804 159.405 80.0171 165.171 77.2189 171.678L77.2256 171.671Z" fill="white"/>
<g opacity="0.35">
<path d="M77.2256 171.671C72.7268 182.135 53.4509 180.415 48.5862 176.084C47.0143 174.683 46.8314 173.174 47.326 171.766C53.8981 175.656 70.64 178.593 73.8853 168.7C75.4708 163.852 72.3677 160.507 70.6738 153.966C69.9624 151.205 67.7875 149.07 65.0367 148.356C59.2032 146.847 52.0349 143.692 49.074 138.123C49.0131 138.008 48.9521 137.892 48.8979 137.77C49.1282 133.167 49.5212 129.971 49.5212 129.971L74.9559 116.162L77.937 114.543C77.9167 120.35 76.9478 125.307 76.0806 129.284C75.9451 129.903 75.8231 130.515 75.7079 131.113C75.5927 131.712 75.4843 132.303 75.3963 132.881C75.3488 133.174 75.3014 133.459 75.2607 133.738C75.132 134.595 75.0236 135.424 74.9355 136.24C74.9084 136.512 74.8745 136.777 74.8542 137.042C74.8068 137.552 74.7661 138.055 74.7323 138.552C74.6239 140.075 74.59 141.53 74.6035 142.903C74.6035 143.053 74.6035 143.203 74.6103 143.352C74.6103 143.651 74.6239 143.95 74.6374 144.25C74.651 144.651 74.6713 145.052 74.6984 145.44C74.7187 145.725 74.739 146.004 74.7594 146.283C74.7729 146.466 74.7865 146.65 74.8068 146.833C74.8203 146.997 74.8339 147.146 74.8542 147.309C74.8678 147.459 74.8813 147.602 74.9016 147.745C74.9694 148.363 75.0439 148.968 75.1252 149.56C76.5142 159.412 80.0509 165.178 77.2527 171.685L77.2256 171.671Z" fill="black"/>
</g>
<path d="M61.3984 180.578C55.6258 180.578 50.1784 178.981 47.8545 176.907C46.1471 175.384 45.9032 173.772 45.998 172.691C46.2691 169.584 49.5212 166.898 51.1609 165.736C45.4831 154.496 48.2949 130.855 48.4236 129.828C48.4982 129.223 49.047 128.795 49.65 128.863C50.253 128.938 50.6866 129.488 50.6121 130.094C50.5782 130.345 47.597 155.367 53.5593 165.525L54.1081 166.463L53.1867 167.034C51.8723 167.85 48.4033 170.488 48.1933 172.882C48.1187 173.732 48.4846 174.507 49.318 175.248C52.0552 177.689 60.2059 179.287 67.0152 177.77C70.2335 177.05 74.4409 175.336 76.2093 171.223C77.9506 167.177 77.0359 163.458 75.7689 158.311C74.0819 151.423 71.9747 142.849 74.9897 129.033C75.9315 124.729 76.7988 119.997 76.8191 114.523C76.8191 113.911 77.3137 113.422 77.9235 113.422C78.5333 113.422 79.0211 113.918 79.0211 114.53C79.0007 120.207 78.1064 125.082 77.1443 129.509C74.2377 142.822 76.2771 151.117 77.9099 157.787C79.2243 163.145 80.261 167.381 78.2284 172.106C76.5345 176.037 72.8216 178.743 67.4894 179.933C65.4975 180.374 63.4242 180.572 61.3916 180.572L61.3984 180.578Z" fill="black"/>
<path d="M69.3865 158.012C63.1193 158.012 54.5621 157.311 48.7624 154.041C48.3626 153.816 48.2203 153.313 48.4439 152.912C48.6675 152.511 49.1689 152.368 49.5686 152.593C59.0338 157.93 77.1172 155.992 77.3001 155.972C77.7541 155.924 78.1606 156.251 78.2148 156.706C78.2622 157.162 77.937 157.57 77.4831 157.624C77.1646 157.658 73.8582 158.018 69.3865 158.018V158.012Z" fill="black"/>
<path d="M108.216 114.87C108.101 119.133 107.572 122.73 106.631 125.531C106.604 125.62 106.57 125.708 106.543 125.796C105.94 127.517 105.181 129.142 104.286 130.658C101.407 135.56 97.1249 139.327 91.9146 141.652C89.5704 142.699 83.2422 145.304 74.7595 145.399C73.6415 145.412 72.4762 145.378 71.2837 145.297C65.9989 144.93 53.2748 141.884 49.0674 133.969C46.2488 128.672 46.9263 113.422 50.375 90.2767C51.7436 81.0977 53.5459 70.6743 55.7411 59.1427L96.8945 61.3729C99.8689 69.1853 102.233 76.7393 104.022 83.8174C107.078 95.9066 108.433 106.616 108.209 114.863L108.216 114.87Z" fill="white"/>
<g opacity="0.35">
<path d="M106.536 125.796C103.975 133.085 98.7306 138.613 91.9146 141.652C89.2586 142.835 81.5009 146.018 71.2904 145.297C66.0057 144.93 53.2816 141.884 49.0741 133.969C47.7664 131.515 47.2109 126.918 47.3328 120.384C47.4344 124.26 48.0036 127.068 49.0741 128.713C53.2816 135.2 66.0057 137.702 71.2904 138.001C81.5009 138.593 89.2586 135.989 91.9146 135.009C98.7306 132.514 103.975 127.979 106.536 122.002C107.606 119.514 108.175 116.209 108.23 112.259C108.297 117.814 107.721 122.417 106.536 125.79V125.796Z" fill="black"/>
</g>
<g opacity="0.35">
<path d="M48.4711 104.746C47.8003 110.784 47.4141 116.026 47.3328 120.391C47.2244 116.318 47.6174 111.069 48.4711 104.746Z" fill="black"/>
</g>
<g opacity="0.35">
<path d="M108.23 112.266C108.203 109.92 108.06 107.397 107.796 104.732C108.121 107.445 108.264 109.968 108.23 112.266Z" fill="black"/>
</g>
<path d="M74.3054 146.514C73.2959 146.514 72.266 146.48 71.2091 146.405L71.1142 146.391L66.0801 145.596C65.4771 145.501 65.0706 144.936 65.1655 144.331C65.2603 143.726 65.8227 143.318 66.4257 143.413L71.4123 144.202C80.0644 144.8 87.0905 142.597 91.4673 140.646C98.1072 137.682 103.094 132.276 105.499 125.429C108.988 115.509 107.362 91.9833 95.8713 61.774C95.6545 61.2028 95.9391 60.5637 96.5082 60.3461C97.0773 60.1286 97.7142 60.4141 97.931 60.9853C108.053 87.591 111.929 113.789 107.579 126.163C104.971 133.588 99.5639 139.449 92.3617 142.665C88.2829 144.488 82.009 146.514 74.3054 146.514Z" fill="black"/>
<path d="M65.8363 145.514C65.7549 145.514 65.6669 145.508 65.5788 145.487C61.8659 144.597 54.9754 142.428 50.5782 137.865C49.5619 136.811 48.7285 135.683 48.0984 134.5C44.2297 127.231 46.3775 102.516 54.6637 58.9456C54.7789 58.3472 55.3548 57.9529 55.951 58.0685C56.5473 58.184 56.9402 58.762 56.825 59.3603C48.7488 101.815 46.4723 126.742 50.0429 133.459C50.5782 134.459 51.2896 135.424 52.1568 136.329C56.1678 140.49 62.6112 142.502 66.0869 143.339C66.6764 143.481 67.0423 144.08 66.9068 144.671C66.7848 145.181 66.3309 145.521 65.8363 145.521V145.514Z" fill="black"/>
<path d="M75.6606 137.899C75.6606 137.899 71.3514 159.507 80.2949 169.999C80.2949 169.999 71.2837 175.54 76.2703 179.987C81.135 184.318 100.404 186.045 104.91 175.574C109.219 165.552 98.5002 157.304 103.758 133.187C104.625 129.21 105.594 124.246 105.608 118.446L75.6606 137.906V137.899Z" fill="white"/>
<g opacity="0.35">
<path d="M103.751 133.242C98.4934 157.366 109.212 165.613 104.903 175.635C100.404 186.099 81.1282 184.379 76.2635 180.048C74.9559 178.885 74.6103 177.648 74.8204 176.451C81.3586 179.919 97.7549 180.51 101.861 170.964C103.345 167.517 94.3876 160.813 94.3266 153.327C94.2791 147.051 96.0272 140.632 97.8633 135.669C99.3403 131.671 96.5218 127.415 92.2804 127.19C92.2398 127.19 92.2059 127.19 92.1652 127.19C89.7668 127.061 87.1515 126.735 84.3397 126.136C84.3397 126.136 79.7935 120.37 84.8546 117.12C84.8546 117.12 100.241 119.242 108.216 114.883C108.101 119.147 107.572 122.743 106.631 125.545C106.17 125.694 105.655 125.844 105.079 125.994C104.72 128.686 104.225 131.113 103.751 133.262V133.242Z" fill="black"/>
</g>
<path d="M76.0196 138.028C76.0738 140.823 75.9451 143.563 75.8502 146.296C75.7892 149.03 75.7689 151.756 75.9654 154.469C76.0602 155.822 76.2364 157.168 76.4735 158.494C76.7107 159.82 77.0291 161.132 77.4424 162.404C77.8625 163.669 78.3368 164.92 78.9601 166.082C79.5766 167.245 80.2948 168.347 81.1214 169.339L81.9412 170.318L80.864 170.998C80.4778 171.243 80.0441 171.556 79.6444 171.855C79.2446 172.161 78.8517 172.487 78.4858 172.82C77.7541 173.494 77.0698 174.228 76.5752 175.01C76.0806 175.785 75.7892 176.614 75.8773 177.322C75.9586 178.029 76.399 178.715 77.0969 179.293C77.7744 179.858 78.6552 180.313 79.5766 180.687C80.4981 181.061 81.4737 181.354 82.4697 181.592C84.4617 182.054 86.5214 182.285 88.5811 182.326C89.6109 182.34 90.6408 182.299 91.6639 182.21C92.6802 182.102 93.6964 181.966 94.6856 181.741C96.6641 181.299 98.5815 180.585 100.214 179.497C101.021 178.947 101.766 178.314 102.396 177.594C103.013 176.859 103.514 176.043 103.907 175.166C104.673 173.351 104.964 171.399 104.808 169.387C104.666 167.374 104.191 165.328 103.69 163.261C103.182 161.187 102.653 159.086 102.24 156.951C101.386 152.681 101.007 148.275 101.217 143.91C101.312 141.727 101.542 139.551 101.861 137.396C102.193 135.247 102.66 133.092 103.094 131.032C103.521 128.951 103.751 126.857 104.049 124.777C104.347 122.689 104.618 120.622 105.235 118.501C105.296 118.297 105.506 118.181 105.709 118.236C105.838 118.276 105.933 118.378 105.967 118.501C106.563 120.663 106.57 122.88 106.366 125.048C106.17 127.224 105.675 129.352 105.248 131.474C104.801 133.609 104.361 135.635 104.036 137.729C103.731 139.81 103.514 141.904 103.419 144.005C103.223 148.2 103.575 152.395 104.401 156.523C104.801 158.589 105.323 160.65 105.831 162.737C106.332 164.824 106.841 166.973 107.003 169.237C107.186 171.495 106.841 173.902 105.926 176.03C105.445 177.111 104.822 178.131 104.056 179.035C103.284 179.933 102.382 180.687 101.427 181.34C99.4962 182.625 97.3348 183.414 95.1531 183.903C94.0623 184.155 92.9579 184.304 91.8536 184.42C90.7492 184.515 89.6448 184.556 88.5336 184.542C86.3249 184.502 84.1229 184.25 81.9548 183.754C80.8707 183.495 79.7934 183.176 78.7365 182.747C77.6795 182.312 76.6361 181.796 75.6605 180.993C75.5385 180.898 75.4234 180.789 75.3082 180.674C75.193 180.558 75.0778 180.456 74.9762 180.334C74.7661 180.082 74.5561 179.837 74.3799 179.538C74.0209 178.967 73.7566 178.287 73.6753 177.58C73.594 176.873 73.6956 176.166 73.8921 175.54C74.0886 174.915 74.38 174.35 74.7052 173.834C75.3556 172.8 76.1619 171.964 76.9952 171.195C77.4153 170.815 77.8489 170.454 78.2961 170.108C78.75 169.761 79.1837 169.448 79.6986 169.122L79.4344 170.781C78.4858 169.645 77.6728 168.408 76.9952 167.116C76.3041 165.824 75.7892 164.464 75.3353 163.091C74.8813 161.717 74.5629 160.317 74.2851 158.916C74.1428 158.216 74.0412 157.508 73.926 156.801C73.8379 156.094 73.7431 155.387 73.6753 154.68C73.3772 151.851 73.3365 149.002 73.5601 146.181C73.6685 144.773 73.8311 143.366 74.1089 141.979C74.3935 140.592 74.7323 139.218 75.2811 137.886C75.3624 137.695 75.5792 137.6 75.7689 137.682C75.9112 137.743 75.9993 137.879 75.9993 138.022L76.0196 138.028Z" fill="black"/>
<path d="M88.9673 159.705C84.3668 159.705 79.2785 159.011 74.6374 156.835C74.2241 156.645 74.048 156.148 74.2377 155.734C74.4274 155.319 74.922 155.135 75.3353 155.333C87.2463 160.915 102.877 156.053 103.033 156.006C103.467 155.87 103.934 156.108 104.07 156.543C104.205 156.978 103.968 157.447 103.534 157.583C103.114 157.719 96.7454 159.698 88.9673 159.698V159.705Z" fill="black"/>
<path d="M45.1917 118.752C48.0206 118.752 50.3139 116.451 50.3139 113.612C50.3139 110.773 48.0206 108.472 45.1917 108.472C42.3628 108.472 40.0696 110.773 40.0696 113.612C40.0696 116.451 42.3628 118.752 45.1917 118.752Z" fill="white"/>
<g opacity="0.35">
<path d="M40.0696 113.748C40.1441 116.583 42.4952 118.827 45.3205 118.759C48.1458 118.684 50.3817 116.325 50.3139 113.483C50.2936 112.701 50.0971 111.953 49.7651 111.3C48.9859 113.054 47.2514 114.305 45.2121 114.36C43.1659 114.414 41.3704 113.252 40.51 111.538C40.2119 112.211 40.056 112.966 40.0764 113.748H40.0696Z" fill="black"/>
</g>
<path d="M45.185 119.861C43.586 119.861 42.0683 119.255 40.903 118.147C39.697 116.998 39.0059 115.448 38.9652 113.782C38.8771 110.342 41.5941 107.465 45.0292 107.377C45.0834 107.377 45.1376 107.377 45.1918 107.377C48.5523 107.377 51.3234 110.076 51.4115 113.462C51.4522 115.128 50.8492 116.713 49.7041 117.923C48.5591 119.133 47.0143 119.827 45.3544 119.867C45.3002 119.867 45.246 119.867 45.185 119.867V119.861ZM45.185 109.58C45.1511 109.58 45.1172 109.58 45.0766 109.58C42.861 109.641 41.1062 111.497 41.1604 113.721C41.1875 114.795 41.6347 115.801 42.4139 116.543C43.193 117.284 44.2161 117.671 45.2866 117.651C46.3571 117.624 47.3599 117.175 48.0984 116.393C48.8369 115.611 49.2299 114.584 49.2028 113.51C49.1486 111.321 47.3531 109.58 45.185 109.58Z" fill="black"/>
<g opacity="0.35">
<path d="M47.6716 118.623C48.5456 112.851 48.715 107.499 48.4711 102.733C48.3559 105.487 48.0916 108.37 47.6377 111.375C47.1024 114.897 46.9398 118.582 47.265 122.193C47.3531 120.989 47.4954 119.793 47.6716 118.616V118.623Z" fill="black"/>
</g>
<path d="M52.604 128.584L79.3598 129.964C82.5239 130.128 85.2544 127.659 85.417 124.477L86.1487 110.192C86.291 107.404 84.421 104.963 81.826 104.29C81.4602 104.195 81.074 104.134 80.681 104.113L53.932 102.733C50.7611 102.57 48.0374 105.038 47.8748 108.22L47.2921 119.534L47.1363 122.506C46.9737 125.688 49.4331 128.421 52.604 128.584Z" fill="white"/>
<g opacity="0.35">
<path d="M52.604 128.584L79.3598 129.964C82.5239 130.128 85.2544 127.659 85.417 124.477L86.1487 110.192C86.291 107.404 84.421 104.963 81.826 104.29C80.2542 105.222 79.2582 105.82 79.2582 105.82C77.3679 117.222 73.8244 122.771 59.6165 122.274C53.4848 122.057 49.6703 120.921 47.2921 119.534L47.1363 122.506C46.9737 125.688 49.4331 128.421 52.604 128.584Z" fill="black"/>
</g>
<path d="M79.658 131.073C79.536 131.073 79.4208 131.073 79.2989 131.066L52.5498 129.686C50.7205 129.59 49.0402 128.781 47.8071 127.415C46.574 126.041 45.9506 124.28 46.0387 122.444L46.7705 108.152C46.9669 104.358 50.2056 101.428 53.9862 101.618L80.7353 102.998C82.5646 103.093 84.2449 103.903 85.478 105.269C86.7111 106.643 87.3344 108.404 87.2464 110.24L86.5146 124.532C86.4198 126.368 85.6135 128.054 84.2517 129.291C82.9779 130.447 81.3586 131.073 79.658 131.073ZM53.6271 103.828C51.1609 103.828 49.0944 105.772 48.9724 108.268L48.2407 122.56C48.1797 123.804 48.6066 125.001 49.4399 125.932C50.2801 126.864 51.4183 127.415 52.6582 127.476L79.4073 128.856C80.6404 128.917 81.8396 128.489 82.7679 127.653C83.6961 126.809 84.2449 125.667 84.3059 124.423L85.0376 110.131C85.1663 107.554 83.1879 105.344 80.6201 105.215L53.871 103.835C53.7897 103.835 53.7084 103.835 53.6271 103.835V103.828Z" fill="black"/>
<path d="M51.5335 128.421C51.8791 128.509 52.2314 128.564 52.604 128.584L79.3598 129.964C81.677 130.08 83.7638 128.795 84.7733 126.837C85.1392 126.13 85.3696 125.327 85.4102 124.477L85.7355 118.127L85.8439 116.033L86.142 110.185C86.3046 107.003 83.8451 104.27 80.6743 104.107L74.8949 103.807C77.5305 104.447 79.4412 106.908 79.2989 109.723L78.9059 117.44L78.5671 124.015C78.4045 127.19 75.6741 129.665 72.51 129.502L51.5267 128.414L51.5335 128.421Z" fill="white"/>
<g opacity="0.35">
<path d="M51.5335 128.421C51.8791 128.509 52.2314 128.564 52.604 128.584L79.3598 129.964C82.5239 130.128 85.2544 127.659 85.4102 124.477L85.8438 116.033C85.0918 117.488 83.7909 119.255 81.8464 119.351C80.7827 119.405 79.7731 118.582 78.9059 117.447L78.5671 124.022C78.4045 127.197 75.6741 129.672 72.51 129.509L51.5267 128.421H51.5335Z" fill="black"/>
</g>
<path d="M79.658 131.073C79.536 131.073 79.4208 131.073 79.2989 131.066L52.543 129.686C52.1162 129.665 51.6758 129.604 51.2557 129.495L51.581 127.319L72.5642 128.407C73.7973 128.468 74.9965 128.047 75.9248 127.204C76.853 126.361 77.4018 125.212 77.4628 123.974L78.1945 109.682C78.3097 107.438 76.8123 105.426 74.6307 104.895L74.9491 102.719L80.7285 103.019C82.5578 103.114 84.2381 103.923 85.4712 105.29C86.7043 106.663 87.3277 108.424 87.2328 110.26L86.5011 124.545C86.4062 126.381 85.6067 128.067 84.2381 129.305C82.9643 130.461 81.345 131.086 79.6512 131.086L79.658 131.073ZM77.4966 128.754L79.4141 128.856C80.654 128.924 81.8464 128.496 82.7746 127.653C83.7029 126.809 84.2517 125.66 84.3126 124.423L85.0444 110.131C85.1799 107.554 83.1947 105.344 80.6201 105.215L78.8991 105.126C79.9222 106.412 80.4913 108.05 80.4033 109.791L79.6715 124.083C79.5834 125.878 78.8111 127.53 77.4966 128.761V128.754Z" fill="black"/>
<path d="M68.3838 116.447C68.3567 116.978 68.9055 121.275 68.9055 121.275C68.9055 121.275 70.2538 121.336 71.907 121.411C73.9734 121.506 75.7486 119.432 75.8638 116.787C75.9857 114.142 74.4071 111.919 72.3406 111.824C70.9449 111.763 69.3391 111.688 69.3391 111.688C69.3391 111.688 68.4177 115.591 68.3838 116.447Z" fill="#22A7F0"/>
<g opacity="0.35">
<path d="M68.3838 116.447C68.3567 116.978 68.9055 121.275 68.9055 121.275C68.9055 121.275 70.2538 121.336 71.907 121.411C73.9734 121.506 75.7486 119.432 75.8638 116.787C75.9857 114.142 74.4071 111.919 72.3406 111.824C70.9449 111.763 69.3391 111.688 69.3391 111.688C69.3391 111.688 68.4177 115.591 68.3838 116.447Z" fill="black"/>
</g>
<path d="M72.0425 122.247C71.9815 122.247 71.9273 122.247 71.8664 122.247L69.7795 122.152C68.8446 122.111 68.0789 121.404 67.9638 120.473C67.5301 116.917 67.5437 116.556 67.5505 116.42C67.5708 115.91 67.835 114.564 68.3228 112.402C68.5261 111.497 69.3459 110.865 70.2742 110.906L72.3677 111.001C73.6279 111.056 74.7662 111.722 75.586 112.878C76.3584 113.966 76.7446 115.373 76.6768 116.835C76.6091 118.297 76.0942 119.663 75.2269 120.677C74.3529 121.696 73.2214 122.254 72.029 122.254L72.0425 122.247ZM69.2036 116.481C69.2036 116.556 69.2172 117.08 69.6034 120.262C69.6169 120.391 69.7253 120.486 69.8541 120.493L71.9409 120.588C72.6794 120.622 73.4044 120.269 73.987 119.595C74.6171 118.861 74.9898 117.855 75.0372 116.76C75.0846 115.665 74.8069 114.625 74.2513 113.836C73.7363 113.109 73.0453 112.694 72.3068 112.66L70.2132 112.565C70.0844 112.551 69.976 112.647 69.9489 112.769C69.2985 115.638 69.224 116.345 69.2172 116.495L69.2036 116.481Z" fill="black"/>
<path d="M72.8575 116.647C72.9778 113.999 71.3996 111.775 69.3325 111.681C67.2653 111.586 65.4921 113.656 65.3718 116.305C65.2515 118.953 66.8297 121.177 68.8968 121.271C70.9639 121.366 72.7372 119.296 72.8575 116.647Z" fill="#22A7F0"/>
<path d="M69.041 122.111C68.98 122.111 68.9258 122.111 68.8648 122.111C66.3444 121.996 64.4134 119.378 64.5557 116.277C64.698 113.177 66.8661 110.749 69.3798 110.865C70.64 110.919 71.7782 111.586 72.5981 112.742C73.3704 113.83 73.7566 115.237 73.6889 116.699C73.6211 118.161 73.1062 119.527 72.239 120.54C71.3649 121.56 70.2335 122.118 69.041 122.118V122.111ZM66.2021 116.352C66.1005 118.541 67.3268 120.377 68.9394 120.452C69.6779 120.486 70.4028 120.133 70.9855 119.459C71.6156 118.725 71.9883 117.719 72.0357 116.624C72.0831 115.529 71.8053 114.489 71.2498 113.7C70.7348 112.973 70.0438 112.558 69.3052 112.524C67.6927 112.442 66.3105 114.17 66.2089 116.359L66.2021 116.352Z" fill="black"/>
<path d="M60.9242 129.733C60.9242 129.733 60.9107 129.733 60.9039 129.733C60.4499 129.72 60.0908 129.339 60.0976 128.883L60.3619 119.405L55.9172 116.271L56.5541 102.876C56.5744 102.42 56.9606 102.06 57.4214 102.087C57.8753 102.108 58.2276 102.495 58.2073 102.957L57.6111 115.441L62.0354 118.562L61.7508 128.931C61.7373 129.38 61.3714 129.74 60.9242 129.74V129.733Z" fill="black"/>
<path d="M109.368 109.947C109.368 109.947 111.841 111.926 111.956 114.972C112.085 118.501 109.883 119.928 109.883 119.928C109.883 119.928 100.262 124.872 84.8208 121.588C84.8208 121.588 80.2745 115.822 85.3357 112.572C85.3357 112.572 101.63 114.815 109.368 109.94V109.947Z" fill="white"/>
<g opacity="0.35">
<path d="M111.956 114.979C112.085 118.501 109.883 119.929 109.883 119.929C109.883 119.929 100.262 124.872 84.8207 121.588C84.8207 121.588 83.3302 119.691 83.0117 117.46C83.0862 117.569 83.1337 117.63 83.1337 117.63C94.4146 120.031 102.592 118.038 106.177 116.787C108.663 115.924 110.33 113.653 110.269 111.124C110.269 111.09 110.269 111.056 110.269 111.022C110.269 110.96 110.269 110.906 110.255 110.845C110.98 111.708 111.895 113.15 111.963 114.979H111.956Z" fill="black"/>
</g>
<path d="M95.2819 123.831C92.1314 123.831 88.554 123.512 84.5972 122.675L84.211 122.594L83.9671 122.281C83.8587 122.145 81.3857 118.963 81.9345 115.672C82.2055 114.027 83.154 112.674 84.753 111.654L85.0918 111.436L85.4915 111.491C85.6474 111.511 101.481 113.626 108.785 109.022L109.449 108.608L110.059 109.097C110.174 109.192 112.932 111.429 113.06 114.951C113.209 119.058 110.594 120.806 110.486 120.874L110.391 120.928C110.086 121.084 104.571 123.845 95.2887 123.845L95.2819 123.831ZM85.4712 120.595C99.4284 123.444 108.487 119.371 109.32 118.977C109.571 118.786 110.946 117.61 110.852 115.013C110.791 113.333 109.829 112.007 109.205 111.321C101.664 115.427 88.2288 114.04 85.6135 113.721C84.7462 114.36 84.2516 115.121 84.0958 116.026C83.7909 117.855 84.9631 119.84 85.4644 120.588L85.4712 120.595Z" fill="black"/>
<path d="M101.109 76.5625C101.109 76.5625 114.998 96.9468 109.652 111.3C106.258 120.411 91.2302 119.84 86.6772 113.088L77.7744 97.3548L101.102 76.5625H101.109Z" fill="white"/>
<g opacity="0.35">
<path d="M109.652 111.293C106.258 120.405 91.2371 119.833 86.6773 113.082L77.7812 97.348L81.0808 94.4039L88.7099 102.713C91.7994 109.417 106.407 113.85 109.802 104.746C110.242 103.569 110.54 102.346 110.723 101.081C111.075 104.589 110.838 108.084 109.646 111.28L109.652 111.293Z" fill="black"/>
</g>
<path d="M98.0192 119.255C92.9106 119.255 88.0662 117.12 85.7626 113.707C85.4239 113.204 85.5526 112.517 86.054 112.171C86.5553 111.831 87.2396 111.96 87.5852 112.463C89.733 115.645 94.9161 117.528 99.9095 116.93C104.205 116.413 107.383 114.217 108.616 110.906C113.697 97.2665 100.33 77.3785 100.194 77.1813C99.8486 76.6782 99.9773 75.9914 100.485 75.6447C100.987 75.2979 101.671 75.4271 102.017 75.9303C102.599 76.7802 116.17 96.9605 110.682 111.674C109.151 115.788 105.316 118.501 100.174 119.119C99.4556 119.208 98.7306 119.249 98.0192 119.249V119.255Z" fill="black"/>
<g opacity="0.35">
<path d="M104.022 83.8242C97.1113 90.6303 88.1069 94.9683 78.5333 96.1922C77.7067 96.2941 76.8666 96.3757 76.0332 96.4369C73.7296 96.6001 71.4057 96.5797 69.0749 96.3689C67.144 96.1922 65.213 95.893 63.2888 95.4578C61.0597 94.9547 58.8374 94.2679 56.649 93.3908C55.924 93.0985 55.2126 92.7925 54.5147 92.4661C53.0851 91.8066 51.703 91.0723 50.375 90.2767C51.7436 81.0977 53.5459 70.6743 55.7411 59.1427L96.8945 61.3729C99.8689 69.1853 102.233 76.7393 104.022 83.8174V83.8242Z" fill="black"/>
</g>
<path d="M35.1034 66.3703C38.6808 72.6665 43.8639 78.0923 50.375 81.9883C51.703 82.7838 53.0852 83.5182 54.5148 84.1777C55.2126 84.5041 55.924 84.81 56.649 85.1024C58.8374 85.9795 61.053 86.6662 63.2888 87.1694C65.213 87.6113 67.144 87.9105 69.075 88.0805C71.4057 88.2913 73.7296 88.3117 76.0265 88.1485C76.8666 88.0873 77.7 88.0057 78.5334 87.9037C93.7305 85.9659 107.498 76.1817 113.711 61.1212C122.871 38.9351 112.173 13.7028 89.8279 4.76171C85.5187 3.04149 81.0944 2.04199 76.6905 1.72922C76.1755 1.68842 75.6606 1.66123 75.1389 1.64763C73.7567 1.59323 72.3746 1.60683 71.006 1.68842C67.8351 1.872 64.7117 2.39555 61.6899 3.23187C58.6681 4.06818 55.7343 5.23086 52.9632 6.67912C52.0824 7.14147 51.2152 7.63102 50.3615 8.15457C49.0877 8.93649 47.8478 9.7796 46.6554 10.6975C40.6863 15.2395 35.8148 21.3588 32.7659 28.7497C27.4947 41.512 28.7956 55.2806 35.1034 66.3771V66.3703Z" fill="white"/>
<path d="M72.9843 88.3593C71.6699 88.3593 70.3623 88.2981 69.0614 88.1825C67.0965 88.0058 65.1452 87.6998 63.2617 87.2646C61.0055 86.7547 58.7696 86.0611 56.6083 85.1976C55.8156 84.8781 55.1177 84.5721 54.4673 84.2729C53.058 83.6202 51.6623 82.8859 50.3208 82.0767C43.9587 78.2691 38.6672 72.8501 35.0085 66.4179C28.4093 54.8115 27.5556 41.0565 32.6642 28.6885C35.6183 21.5357 40.4288 15.2735 46.5876 10.5888C47.7529 9.69806 48.9996 8.84135 50.3072 8.03903C51.1406 7.52908 52.0214 7.02593 52.9158 6.56358C55.6936 5.10852 58.6409 3.94584 61.6627 3.10953C64.7116 2.25961 67.8554 1.73606 71.0059 1.55928C72.3745 1.48449 73.7703 1.47089 75.1457 1.51849C75.7012 1.53888 76.2094 1.56608 76.6972 1.60688C81.1893 1.92645 85.6203 2.95314 89.8685 4.64617C100.75 8.99773 109.226 17.3065 113.738 28.0358C118.21 38.6767 118.244 50.4395 113.819 61.1553C107.816 75.7058 94.2995 85.9999 78.5536 88.0057C77.7271 88.1077 76.8801 88.1961 76.0468 88.2505C75.0305 88.3185 74.0142 88.3593 72.9911 88.3593H72.9843ZM35.1982 66.3091C38.8366 72.7141 44.1078 78.0991 50.4292 81.8864C51.7707 82.6887 53.1597 83.423 54.5554 84.0689C55.199 84.3681 55.8969 84.6741 56.6828 84.9936C58.8306 85.8504 61.0597 86.5439 63.3024 87.0538C65.1791 87.4822 67.1236 87.7882 69.0749 87.965C71.3582 88.1689 73.6957 88.1961 76.0129 88.0329C76.8463 87.9718 77.6864 87.8902 78.513 87.7882C94.1844 85.7892 107.627 75.5494 113.603 61.0737C118.006 50.4123 117.979 38.7107 113.528 28.1242C109.043 17.4493 100.607 9.18811 89.7804 4.85695C85.5594 3.17072 81.1486 2.15082 76.6769 1.83125C76.1891 1.79046 75.6809 1.76326 75.1321 1.74966C73.7567 1.69527 72.3745 1.70887 71.0127 1.78366C67.8825 1.96044 64.7523 2.48399 61.7169 3.3271C58.7087 4.16342 55.7817 5.3193 53.0106 6.76756C52.123 7.22991 51.249 7.72626 50.4156 8.23621C49.1216 9.03173 47.8749 9.88844 46.7163 10.7724C40.5914 15.4367 35.8012 21.6649 32.8607 28.7769C27.7792 41.0769 28.6329 54.7571 35.1915 66.3091H35.1982Z" fill="black"/>
<g opacity="0.35">
<path d="M113.711 61.1145C107.498 76.1818 93.7236 85.9592 78.5333 87.897C77.7 87.999 76.8666 88.0874 76.0332 88.1418C73.7296 88.3049 71.4057 88.2845 69.0817 88.0738C67.1507 87.897 65.2198 87.5978 63.2956 87.1627C61.0597 86.6595 58.8442 85.9728 56.6557 85.0957C55.9308 84.7965 55.2194 84.4973 54.5215 84.171C53.0919 83.5114 51.7097 82.7771 50.3818 81.9816C43.8707 78.0788 38.6875 72.6597 35.1101 66.3636C33.1453 62.9095 31.6615 59.1903 30.7197 55.3215C34.27 61.2505 39.277 66.3568 45.49 70.076C46.8179 70.8715 48.1933 71.6058 49.6297 72.2654C50.3276 72.5917 51.039 72.8909 51.7639 73.1901C53.9524 74.0672 56.1679 74.7539 58.4038 75.2571C60.328 75.6922 62.259 75.9914 64.1899 76.1682C66.5206 76.379 68.8446 76.3993 71.1414 76.2362C71.9816 76.175 72.8149 76.0934 73.6483 75.9846C88.8454 74.0468 102.613 64.2626 108.826 49.2021C112.457 40.4174 112.966 31.1499 110.872 22.61C117.62 33.856 119.131 48.0122 113.718 61.1077L113.711 61.1145Z" fill="black"/>
</g>
<path d="M72.9842 89.1073C71.6495 89.1073 70.3148 89.0461 69.0003 88.9305C67.0084 88.7537 65.0232 88.4409 63.099 87.999C60.8089 87.4822 58.5324 86.7751 56.3372 85.898C55.531 85.5716 54.8195 85.2656 54.1623 84.9529C52.7327 84.2933 51.3167 83.5454 49.9481 82.7227C43.4776 78.8471 38.0912 73.3397 34.3716 66.7919C27.6572 54.9815 26.7899 40.9885 31.9866 28.4098C34.9881 21.1345 39.8867 14.7704 46.1471 10.0041C47.3328 9.09975 48.5998 8.22943 49.9277 7.41352C50.7814 6.88997 51.669 6.38682 52.5769 5.91087C55.4022 4.42862 58.3969 3.24554 61.4729 2.39562C64.576 1.53211 67.774 1.00177 70.972 0.818184C72.3677 0.736592 73.7837 0.729793 75.1862 0.777388C75.7486 0.797786 76.2703 0.824983 76.7717 0.865779C81.3315 1.19215 85.8371 2.23244 90.153 3.95267C101.217 8.37902 109.842 16.8306 114.429 27.7435C118.982 38.5748 119.009 50.5416 114.51 61.4409C108.406 76.243 94.6586 86.7071 78.6484 88.7469C77.8083 88.8557 76.9478 88.9373 76.1009 88.9985C75.0643 89.0733 74.0276 89.1073 72.991 89.1073H72.9842ZM35.8486 65.942C39.426 72.2314 44.6023 77.528 50.8153 81.2541C52.1297 82.0428 53.4984 82.7635 54.8737 83.4026C55.5106 83.7018 56.1949 83.9942 56.9741 84.3069C59.0812 85.1501 61.2764 85.83 63.4784 86.3263C65.3281 86.7479 67.232 87.0471 69.1562 87.2239C71.3988 87.4278 73.6957 87.4482 75.9789 87.2918C76.7988 87.2307 77.6253 87.1491 78.4384 87.0471C93.8387 85.0821 107.057 75.0191 112.932 60.7881C117.254 50.3172 117.227 38.8195 112.857 28.4166C108.446 17.9321 100.16 9.80688 89.5229 5.55051C85.3696 3.89147 81.0333 2.89197 76.6429 2.57921C76.1619 2.53841 75.6673 2.51121 75.1252 2.49761C73.7702 2.44322 72.4083 2.45682 71.0668 2.53161C67.9908 2.70839 64.9148 3.21834 61.9269 4.04786C58.9661 4.87057 56.0865 6.00606 53.3696 7.42712C52.4956 7.88267 51.6351 8.37222 50.8221 8.87537C49.5483 9.65729 48.322 10.4936 47.1837 11.3707C41.1604 15.9535 36.4516 22.0728 33.5653 29.0693C28.5719 41.1585 29.4052 54.6007 35.8554 65.9488L35.8486 65.942Z" fill="black"/>
<path d="M72.9843 89.3589C71.6428 89.3589 70.3013 89.2977 68.9733 89.1821C66.9678 88.9985 64.9691 88.6857 63.0449 88.2438C60.7413 87.727 58.4512 87.0131 56.2424 86.1292C55.4294 85.8028 54.718 85.4901 54.054 85.1841C52.6176 84.5178 51.188 83.763 49.8126 82.9403C43.3083 79.0443 37.888 73.5029 34.148 66.9143C27.3998 55.0359 26.5258 40.9682 31.7496 28.3146C34.7714 20.9986 39.6903 14.6004 45.9913 9.8069C47.177 8.89579 48.4576 8.01868 49.7923 7.20276C50.646 6.67922 51.5471 6.16927 52.4618 5.69332C55.3007 4.20427 58.3157 3.01439 61.4052 2.15767C64.5219 1.28736 67.7402 0.757014 70.9517 0.573433C72.3542 0.491841 73.777 0.478242 75.1863 0.532637C75.7486 0.553035 76.2771 0.580232 76.7853 0.621028C81.3722 0.947395 85.8981 1.99449 90.2411 3.72831C101.373 8.18186 110.039 16.6742 114.653 27.6551C119.233 38.5476 119.26 50.5824 114.734 61.5429C108.596 76.4266 94.7738 86.9451 78.6756 88.9985C77.8287 89.1073 76.9682 89.1889 76.1145 89.2501C75.0711 89.3249 74.0277 89.3589 72.9911 89.3589H72.9843ZM36.0655 65.8196C39.6225 72.075 44.765 77.3377 50.9441 81.0365C52.2517 81.8184 53.6136 82.5391 54.9822 83.1715C55.6123 83.4639 56.2966 83.763 57.069 84.0758C59.1694 84.9121 61.3443 85.592 63.5327 86.0884C65.3688 86.5099 67.2659 86.8091 69.1766 86.9791C71.4124 87.1831 73.6889 87.2035 75.9587 87.0471C76.7717 86.9859 77.5983 86.9043 78.4046 86.8091C93.7169 84.8509 106.861 74.8491 112.701 60.6998C117.004 50.29 116.977 38.8604 112.627 28.5186C108.243 18.0953 100.004 10.0177 89.4281 5.78851C85.3019 4.14307 80.9928 3.14357 76.6227 2.8308C76.1416 2.79001 75.6538 2.76281 75.1185 2.74921C73.7702 2.69482 72.4152 2.70842 71.0804 2.78321C68.018 2.95999 64.9623 3.46314 61.9947 4.29266C59.0542 5.10857 56.1882 6.23726 53.4849 7.65832C52.6176 8.11387 51.7639 8.59662 50.9509 9.09297C49.6839 9.86809 48.4643 10.7044 47.3328 11.5747C41.3434 16.1303 36.6617 22.2156 33.7957 29.1713C28.8294 41.1857 29.6627 54.5464 36.0722 65.8264L36.0655 65.8196Z" fill="black"/>
<path d="M41.7973 75.2299C67.6859 92.4322 102.349 79.0851 103.738 48.4474C104.679 27.6075 84.8005 10.718 64.5286 11.2212C49.7787 11.5883 35.4963 18.3332 29.6763 41.1585C29.6763 41.1585 28.6735 51.6499 31.6411 58.558C34.6087 65.4661 38.6807 71.6807 38.6807 71.6807L41.7973 75.2231V75.2299Z" fill="black"/>
<path d="M103.731 48.4474C102.349 79.0851 67.6792 92.4321 41.7973 75.2298L41.1672 74.5091C69.434 78.9151 97.2806 61.6312 99.259 30.674C102.335 35.957 104.022 42.0084 103.731 48.4406V48.4474Z" fill="#220F2D"/>
<path d="M66.3716 88.373C65.3214 88.373 64.2712 88.339 63.2143 88.271L63.0449 88.2438C60.7413 87.7202 58.4512 87.0131 56.2424 86.1292C55.4294 85.8028 54.718 85.4901 54.054 85.1841C52.6176 84.5178 51.188 83.763 49.8126 82.9403C43.3083 79.0443 37.888 73.5029 34.148 66.9143C27.3998 55.0359 26.5258 40.9682 31.7496 28.3146C34.7714 20.9986 39.6903 14.6004 45.9913 9.80692L46.0794 9.73893L46.181 9.69133C51.3913 7.20278 57.4688 5.85652 64.2373 5.68653C76.4194 5.38057 88.9741 10.616 97.8227 19.6795C105.791 27.8387 109.917 38.1397 109.436 48.6854C108.914 60.1626 104.354 70.0828 96.2508 77.3649C88.3711 84.4498 77.6254 88.3798 66.3783 88.3798L66.3716 88.373ZM63.4446 86.068C75.1998 86.8091 86.6163 83.0423 94.7738 75.7127C102.43 68.8318 106.739 59.4555 107.227 48.5834C107.674 38.6564 103.771 28.9402 96.2373 21.223C87.8088 12.5878 75.8638 7.60394 64.2848 7.89631C57.8753 8.0527 52.1366 9.31737 47.2244 11.6359C41.2825 16.1847 36.6346 22.2429 33.7754 29.1646C28.8091 41.1789 29.6424 54.5396 36.0519 65.8197C39.609 72.075 44.7514 77.3377 50.9306 81.0365C52.2382 81.8184 53.6 82.5392 54.9687 83.1715C55.5988 83.4639 56.2831 83.763 57.0555 84.0758C59.1287 84.9053 61.2765 85.5717 63.4378 86.068H63.4446Z" fill="black"/>
<path d="M66.4867 83.9398C57.794 83.9398 48.9521 81.3152 41.1876 76.1546L41.0656 76.073L37.7593 72.2925C37.5899 72.0342 33.606 65.9148 30.6316 58.9999C27.5827 51.915 28.538 41.4985 28.5787 41.0565L28.6058 40.8865C33.6941 20.9373 45.7677 10.582 64.4948 10.1128C75.3624 9.84086 86.5689 14.5052 94.4621 22.5964C101.576 29.8784 105.255 39.0779 104.828 48.495C104.212 62.1412 97.03 73.4552 85.1257 79.527C79.3396 82.4779 72.9504 83.9398 66.48 83.9398H66.4867ZM42.5291 74.3867C55.3887 82.8791 71.3176 84.0894 84.1365 77.5552C95.3158 71.8506 102.057 61.2233 102.64 48.393C103.04 39.5947 99.5775 30.9867 92.897 24.1466C85.4238 16.4906 74.834 12.071 64.5625 12.3294C46.967 12.7646 35.5979 22.5284 30.7739 41.3489C30.6926 42.3348 29.9744 51.8742 32.6642 58.1228C35.4015 64.4869 39.1347 70.3411 39.5683 71.0143L42.5359 74.3867H42.5291Z" fill="black"/>
<path d="M123.101 46.1493C123.759 54.662 119.226 62.216 112.979 63.0116C106.732 63.8071 101.143 57.5517 100.485 49.039C100.485 48.9846 100.479 48.9302 100.472 48.8758C99.8824 40.431 104.402 32.9654 110.601 32.1767C115.425 31.5579 119.863 35.1548 121.929 40.7438C122.539 42.3892 122.946 44.2115 123.095 46.1493H123.101Z" fill="white"/>
<g opacity="0.35">
<path d="M123.102 46.1492C123.759 54.662 119.226 62.216 112.979 63.0115C106.732 63.807 101.143 57.5517 100.485 49.0389C100.485 48.9845 100.479 48.9301 100.472 48.8758C101.224 49.6645 102.362 50.3852 103.785 49.9092C106.278 49.0729 110.411 43.0215 110.411 43.0215C110.411 43.0215 115.398 42.0016 121.929 40.7438C122.539 42.3892 122.946 44.2114 123.095 46.1492H123.102Z" fill="black"/>
</g>
<path d="M111.888 64.1878C109.571 64.1878 107.328 63.3447 105.33 61.7129C101.956 58.9524 99.7875 54.3628 99.381 49.1206C98.6831 40.0435 103.656 31.9455 110.465 31.0752C113.209 30.7216 115.906 31.5511 118.25 33.4685C121.624 36.2291 123.793 40.8186 124.199 46.0609C124.897 55.1379 119.924 63.2359 113.115 64.1062C112.701 64.1606 112.295 64.1878 111.888 64.1878ZM111.678 33.2102C111.367 33.2102 111.055 33.2306 110.743 33.2714C105.079 33.9921 100.973 41.0294 101.583 48.9506C101.935 53.5197 103.853 57.6537 106.725 59.9926C108.595 61.5225 110.709 62.182 112.837 61.9101C118.501 61.1893 122.607 54.152 121.997 46.2308C121.645 41.6617 119.727 37.5277 116.855 35.1888C115.262 33.8833 113.487 33.2102 111.678 33.2102Z" fill="black"/>
<path d="M124.808 48.7575C124.936 41.9694 120.895 36.3874 115.78 36.2898C110.666 36.1921 106.416 41.6158 106.287 48.4039C106.158 55.192 110.2 60.774 115.314 60.8716C120.429 60.9693 124.679 55.5456 124.808 48.7575Z" fill="white"/>
<path d="M115.452 60.999C114.497 60.999 113.542 60.8018 112.607 60.4074C107.701 58.3404 105.025 51.3575 106.631 44.8438C107.525 41.213 109.592 38.3504 112.288 36.9906C114.294 35.9775 116.435 35.8959 118.474 36.7594C123.379 38.8264 126.056 45.8093 124.45 52.323C123.556 55.9539 121.489 58.8164 118.792 60.1762C117.702 60.727 116.577 60.999 115.452 60.999ZM115.635 36.399C114.544 36.399 113.453 36.6642 112.397 37.1946C109.754 38.5272 107.735 41.3353 106.854 44.8982C105.276 51.3099 107.898 58.1704 112.695 60.1966C114.666 61.0262 116.74 60.9514 118.691 59.9723C121.333 58.6396 123.352 55.8315 124.233 52.2686C125.812 45.8569 123.19 38.9964 118.393 36.9702C117.492 36.5894 116.563 36.399 115.642 36.399H115.635Z" fill="black"/>
<g opacity="0.35">
<path d="M107.22 54.4784C106.475 52.2754 106.339 49.8548 106.719 47.5431C108.846 52.425 113.623 54.1044 117.776 51.2419C120.466 49.3993 122.275 46.0812 122.851 42.5048C122.986 42.8107 123.108 43.1371 123.223 43.4703C125.121 49.0865 123.068 56.1034 118.65 59.1427C114.233 62.182 109.11 60.0878 107.22 54.4784Z" fill="black"/>
</g>
<path d="M115.682 61.9916C113.975 61.9916 112.308 61.3661 110.818 60.149C108.087 57.9256 106.265 53.9412 105.94 49.4945C105.391 41.988 109.232 35.2975 114.504 34.5836C116.543 34.3048 118.555 34.9235 120.324 36.3582C123.054 38.5816 124.877 42.566 125.202 47.0127C125.751 54.5191 121.909 61.2097 116.638 61.9236C116.319 61.9644 116.001 61.9916 115.682 61.9916ZM115.445 36.7321C115.229 36.7321 115.018 36.7457 114.802 36.7729C110.662 37.3373 107.674 42.9671 108.142 49.3313C108.419 53.1865 109.944 56.5861 112.207 58.4287C113.487 59.4758 114.924 59.9246 116.34 59.7342C120.479 59.1699 123.467 53.54 123 47.1759C122.722 43.3207 121.198 39.921 118.935 38.0784C117.844 37.1877 116.651 36.7321 115.445 36.7321Z" fill="black"/>
<g opacity="0.7">
<path d="M75.0846 18.5848C75.0846 18.5848 55.2803 20.3323 44.5956 31.9047C44.582 31.9183 44.5753 31.9319 44.5617 31.9387C42.3123 34.3728 40.7743 37.3713 40.0697 40.5874C39.1414 44.8438 39.1347 47.9103 39.2295 50.6096C39.5276 58.8164 41.2147 62.5968 41.2147 62.5968C36.3432 58.456 33.5044 53.6421 33.1859 46.8088C33.1588 46.1357 33.152 45.4421 33.1656 44.7214C33.1656 44.5582 33.1791 44.395 33.1859 44.2318C33.1859 44.2318 33.1859 44.2318 33.1859 44.225C33.3214 42.7768 33.5789 40.8866 34.0464 38.772C35.4489 32.401 38.7688 24.0243 46.6214 19.8767C61.3036 12.1187 75.7283 17.6941 75.0779 18.578L75.0846 18.5848Z" fill="white"/>
</g>
<g opacity="0.7">
<path d="M92.6169 44.6008C95.6921 43.6117 97.2666 39.9342 96.1337 36.3869C95.0009 32.8395 91.5895 30.7655 88.5143 31.7546C85.4391 32.7436 83.8646 36.4211 84.9974 39.9685C86.1303 43.5159 89.5417 45.5898 92.6169 44.6008Z" fill="white"/>
</g>
<g opacity="0.7">
<path d="M95.2791 52.45C96.5044 51.9255 97.0098 50.3523 96.4079 48.9361C95.8059 47.5199 94.3247 46.7971 93.0994 47.3216C91.8741 47.8461 91.3687 49.4193 91.9706 50.8354C92.5725 52.2516 94.0538 52.9745 95.2791 52.45Z" fill="white"/>
</g>
<g opacity="0.35">
<path d="M77.2121 119.31C77.2121 119.31 77.2121 119.398 77.124 119.548C77.1511 119.459 77.1782 119.378 77.2121 119.31Z" fill="black"/>
</g>
<path d="M63.2413 106.384C63.2413 106.384 65.2197 115.964 64.7387 117.46C64.2576 118.963 60.1179 127.02 58.7967 124.477C57.4687 121.934 53.3087 117.338 54.7925 112.701C56.2763 108.064 56.6354 106.058 57.8685 106.384C59.1084 106.711 63.2481 106.384 63.2481 106.384H63.2413Z" fill="#CE2E2E"/>
<path d="M65.3959 117.331C64.9758 117.331 64.5964 117.032 64.5083 116.604L62.3537 106.092C62.2521 105.596 62.5706 105.12 63.0584 105.018C63.553 104.916 64.0273 105.235 64.1289 105.725L66.2835 116.237C66.3851 116.733 66.0666 117.209 65.5788 117.311C65.5178 117.324 65.4569 117.331 65.3959 117.331Z" fill="#6B184E"/>
<path d="M54.0269 115.985C53.932 115.985 53.8439 115.971 53.7491 115.944C53.268 115.788 53.0106 115.278 53.1596 114.795L56.2424 105.147C56.3982 104.664 56.9064 104.406 57.3874 104.555C57.8685 104.712 58.126 105.222 57.9769 105.704L54.8941 115.353C54.7722 115.74 54.4131 115.985 54.0269 115.985Z" fill="#6B184E"/>
<path d="M68.9123 118.807H13.1444L12.8802 117.943L12.704 117.372L11.9858 115.047L8.25937 102.971L6.75525 98.0891L2.06671 82.8995C1.42305 80.8121 2.97461 78.6907 5.15627 78.6907H53.9658C55.47 78.6907 56.7979 79.6698 57.2383 81.1112L66.2563 110.233L66.9948 112.619L68.9123 118.813V118.807Z" fill="#33AEF1"/>
<g opacity="0.35">
<path d="M66.2496 110.226C63.8376 109.709 61.8321 107.934 61.0664 105.507L55.5039 87.9241C54.6231 85.1364 52.0417 83.2394 49.1283 83.2394H15.4277C12.284 83.2394 9.45187 81.4512 8.0697 78.6838H56.4863L66.2496 110.226Z" fill="white"/>
</g>
<path d="M69.6847 118.807V124.219H16.295C14.8519 124.219 13.6391 123.247 13.2597 121.928C13.1783 121.649 13.1377 121.356 13.1377 121.05V118.807H69.6779H69.6847Z" fill="#F92323"/>
<path d="M70.1725 118.807L96.6777 105.8C97.633 105.337 98.7509 106.017 98.778 107.085C98.7916 107.635 98.5002 108.145 98.026 108.411L69.6847 124.219" fill="#848484"/>
<g opacity="0.35">
<path d="M69.6847 121.384V123.675H16.295C14.8519 123.675 13.6391 122.703 13.2596 121.384H69.6779H69.6847Z" fill="black"/>
</g>
<path d="M96.1424 106.058L87.1448 113.02L68.5939 118.439L64.9216 105.65L66.9 105.677L88.5405 105.963L96.1424 106.058Z" fill="#33AEF1"/>
<g opacity="0.6">
<path d="M67.6386 116.155L81.982 108.648H66.5071L67.6386 116.155Z" fill="white"/>
</g>
<path d="M70.4029 119.908H12.3314L0.935262 82.9743C0.542292 81.696 0.765878 80.3497 1.55859 79.2754C2.35131 78.2011 3.5641 77.5824 4.89884 77.5824H54.2437C56.073 77.5824 57.6652 78.7587 58.2072 80.5129L70.4096 119.915L70.4029 119.908ZM13.9575 117.698H67.4149L56.1069 81.1656C55.8494 80.3429 55.1041 79.7922 54.2504 79.7922H4.89884C4.27551 79.7922 3.70638 80.0845 3.33373 80.5877C2.96109 81.0908 2.85946 81.7232 3.04239 82.3215L13.9575 117.698Z" fill="black"/>
<path d="M69.6779 125.32H16.295C13.9507 125.32 12.04 123.403 12.04 121.05V117.698H69.6847C70.2944 117.698 70.789 118.195 70.789 118.807C70.789 119.419 70.2944 119.915 69.6847 119.915H14.242V121.057C14.242 122.193 15.1635 123.117 16.295 123.117H69.6779C70.2877 123.117 70.7823 123.614 70.7823 124.226C70.7823 124.838 70.2877 125.334 69.6779 125.334V125.32Z" fill="black"/>
<path d="M70.1725 118.807L96.6777 105.8C97.633 105.337 98.7509 106.017 98.778 107.085C98.7916 107.635 98.5002 108.145 98.026 108.411L69.6847 124.219" fill="#F92323"/>
<g opacity="0.35">
<path d="M98.778 107.085V107.125C98.778 107.656 98.4867 108.152 98.026 108.41L69.6847 124.219L69.9286 121.499L97.5517 107.2C97.7956 107.071 97.9921 106.887 98.1344 106.663C98.2428 106.486 98.3105 106.282 98.3376 106.072C98.6019 106.323 98.7712 106.677 98.7848 107.085H98.778Z" fill="black"/>
</g>
<path d="M69.6847 125.32C69.2985 125.32 68.9191 125.116 68.7226 124.749C68.4245 124.212 68.621 123.539 69.1494 123.247L97.4907 107.438C97.6126 107.37 97.6804 107.248 97.6804 107.112C97.6804 106.942 97.572 106.847 97.5042 106.813C97.4433 106.772 97.3145 106.717 97.1587 106.792L70.6603 119.792C70.1115 120.058 69.4543 119.833 69.1833 119.283C68.9191 118.732 69.1427 118.072 69.6915 117.8L96.1966 104.793C96.9893 104.412 97.904 104.453 98.6493 104.916C99.3946 105.371 99.8553 106.167 99.8756 107.044C99.9027 108.009 99.3946 108.9 98.5544 109.369L70.2132 125.178C70.0438 125.273 69.8608 125.32 69.6779 125.32H69.6847Z" fill="black"/>
<path d="M96.969 106.758H64.9216C64.3119 106.758 63.8173 106.262 63.8173 105.65C63.8173 105.038 64.3119 104.542 64.9216 104.542H96.969C97.5788 104.542 98.0734 105.038 98.0734 105.65C98.0734 106.262 97.5788 106.758 96.969 106.758Z" fill="black"/>
<path d="M69.3595 125.32C68.7497 125.32 68.2551 124.824 68.2551 124.212V118.8C68.2551 118.188 68.7497 117.692 69.3595 117.692C69.9693 117.692 70.4639 118.188 70.4639 118.8V124.212C70.4639 124.824 69.9693 125.32 69.3595 125.32Z" fill="black"/>
<path d="M42.2649 124.647C42.2649 124.647 36.804 131.039 28.0638 130.624C13.0293 129.903 16.3695 118.46 19.5133 116.345C27.7453 110.817 36.3839 116.767 37.346 119.221C39.1347 123.777 42.2649 124.647 42.2649 124.647Z" fill="white"/>
<g opacity="0.35">
<path d="M42.2649 124.647C42.2649 124.647 36.804 131.039 28.0638 130.624C19.0255 130.196 16.627 125.885 16.837 122.057C18.314 124.233 21.3562 125.953 26.8984 126.218C32.4339 126.483 36.6549 124.015 39.0059 122.166C40.5981 124.185 42.2649 124.647 42.2649 124.647Z" fill="black"/>
</g>
<path d="M28.8904 131.753C28.599 131.753 28.3077 131.746 28.0096 131.732C19.581 131.331 16.837 127.734 16.024 124.79C15.0009 121.098 16.7219 116.896 18.9035 115.434C23.6395 112.259 28.2196 112.714 31.2346 113.66C34.8866 114.802 37.7322 117.188 38.3759 118.827C39.9139 122.757 42.4614 123.559 42.5698 123.593L44.1959 124.083L43.105 125.375C42.8747 125.647 37.5493 131.759 28.8971 131.759L28.8904 131.753ZM26.79 115.169C24.771 115.169 22.4673 115.686 20.1231 117.263C18.8154 118.14 17.3587 121.35 18.1447 124.192C19.0322 127.408 22.4809 129.25 28.1112 129.522C34.0938 129.815 38.491 126.633 40.3881 124.94C39.155 124.137 37.468 122.567 36.3161 119.629C35.9842 118.786 33.7822 116.774 30.5707 115.767C29.5137 115.434 28.2196 115.176 26.79 115.176V115.169Z" fill="black"/>
<g opacity="0.35">
<path d="M88.5404 105.963C85.7422 114.578 68.3838 114.19 66.9609 106.031C66.9406 105.915 66.9203 105.793 66.9067 105.677L88.5472 105.963H88.5404Z" fill="black"/>
</g>
<path d="M100.797 97.0013C100.797 97.0013 93.1274 89.6444 84.4549 89.6444C75.525 89.6444 65.3959 94.4583 66.961 103.406C68.4719 112.069 87.951 111.973 88.886 101.638" fill="white"/>
<g opacity="0.35">
<path d="M88.8859 101.632C87.9509 111.967 68.4718 112.062 66.9609 103.399C66.7035 101.917 66.7644 100.551 67.0897 99.2994C69.0342 106.262 83.1337 106.983 87.5783 100.591C87.9848 100.013 88.8859 100.279 88.8859 100.986V101.632Z" fill="black"/>
</g>
<path d="M77.395 110.763C72.3135 110.763 66.7442 108.581 65.8701 103.59C65.3078 100.374 66.1073 97.3616 68.1805 94.8799C71.4056 91.0247 77.7947 88.5361 84.4481 88.5361C93.4593 88.5361 101.231 95.8862 101.556 96.199C101.996 96.6205 102.01 97.3209 101.59 97.7628C101.17 98.2048 100.472 98.2184 100.031 97.7968C99.9298 97.6948 92.5514 90.7459 84.4481 90.7459C78.4181 90.7459 72.6929 92.9285 69.8676 96.3009C68.2008 98.2931 67.5843 100.619 68.0382 103.209C68.6955 106.955 73.5601 108.73 78.0319 108.54C82.5849 108.349 87.3683 106.112 87.7816 101.536C87.8358 100.931 88.371 100.483 88.9808 100.537C89.5838 100.591 90.031 101.128 89.9768 101.74C89.4416 107.649 83.6351 110.525 78.12 110.756C77.876 110.763 77.6321 110.77 77.3882 110.77L77.395 110.763Z" fill="black"/>
<path d="M95.7427 171.141C94.5164 170.631 93.2358 170.277 91.9553 170.046C90.6747 169.815 89.3942 169.693 88.1204 169.727C86.8534 169.761 85.5932 169.89 84.3669 170.148C83.7436 170.243 83.1473 170.434 82.5308 170.57C82.2191 170.631 81.9278 170.747 81.6229 170.835C81.318 170.923 81.0131 171.012 80.7014 171.087L80.5998 171.114C80.0103 171.257 79.4141 170.896 79.2718 170.305C79.1431 169.781 79.4141 169.251 79.8884 169.033C80.2136 168.884 80.5388 168.748 80.8708 168.618C81.2028 168.496 81.528 168.34 81.8803 168.258C82.5714 168.068 83.2557 167.87 83.9739 167.789C85.3832 167.544 86.8331 167.585 88.2424 167.741C89.6584 167.898 91.0338 168.272 92.3347 168.782C93.6288 169.305 94.8619 169.971 95.9256 170.876C95.9934 170.93 96.0002 171.032 95.9459 171.1C95.8985 171.155 95.824 171.168 95.763 171.148H95.7495L95.7427 171.141Z" fill="black"/>
<path d="M67.3065 167.218C66.1072 166.789 64.8809 166.456 63.6613 166.218C62.4418 165.98 61.2154 165.858 60.0094 165.838C59.7045 165.838 59.4064 165.824 59.1083 165.844C58.8102 165.865 58.5121 165.892 58.214 165.905C57.9158 165.919 57.6245 165.98 57.3332 166.014C57.1841 166.035 57.0418 166.048 56.8928 166.069C56.7505 166.096 56.6082 166.13 56.4591 166.157C55.2938 166.334 54.2097 166.749 53.0782 167.095L52.9631 167.129C52.3804 167.306 51.7706 166.98 51.5945 166.395C51.4386 165.878 51.6758 165.334 52.1433 165.096C52.4481 164.94 52.7598 164.784 53.0782 164.641L53.5525 164.43C53.7151 164.362 53.8845 164.321 54.0471 164.267C54.3791 164.165 54.7111 164.063 55.0499 163.974C55.3886 163.906 55.7342 163.845 56.0797 163.798C57.4551 163.601 58.8441 163.635 60.1856 163.859C61.5271 164.076 62.8212 164.45 64.0475 164.967C65.2671 165.498 66.4325 166.13 67.4691 166.953C67.5368 167.007 67.5504 167.109 67.4962 167.177C67.4555 167.231 67.381 167.252 67.32 167.231H67.3065V167.218Z" fill="black"/>
<path d="M92.2059 117.957C91.7722 117.957 91.4064 117.617 91.3793 117.168C91.3522 116.712 91.7045 116.318 92.1584 116.298C94.6382 116.168 97.0706 114.292 98.5137 111.409C100.939 106.554 100.099 100.224 96.2778 94.4787C96.0272 94.0979 96.1288 93.5812 96.5082 93.3296C96.8876 93.078 97.4025 93.18 97.6532 93.5608C101.813 99.8093 102.687 106.765 99.9907 112.157C98.2833 115.577 95.3157 117.8 92.2465 117.964C92.233 117.964 92.2194 117.964 92.1991 117.964L92.2059 117.957Z" fill="black"/>
<path d="M36.3026 105.48C36.3026 105.48 36.2619 105.507 36.2416 105.521C33.7754 107.057 30.4623 106.398 28.782 104.018C26.9187 101.38 27.6573 97.7559 30.3471 96.0561C30.3606 96.0493 30.3742 96.0425 30.3877 96.0289C31.1466 95.553 32.0545 96.3689 31.7089 97.1984C31.1398 98.5787 31.2211 100.204 32.0748 101.564C32.9285 102.923 34.3513 103.699 35.8351 103.773C36.7362 103.821 37.0614 104.99 36.3094 105.48H36.3026Z" fill="white"/>
</svg>
