<svg width="260" height="279" viewBox="0 0 260 279" fill="none" xmlns="http://www.w3.org/2000/svg">
<path d="M95.104 196C91.5646 188.034 91.6898 177.956 95.1352 169.844C100.394 157.464 113.358 155.953 124.859 153.843C135.399 151.909 143.099 143.243 142.463 132.34C142.043 125.127 136.058 115.26 129.595 112" stroke="black" stroke-width="4" stroke-linecap="round"/>
<path d="M148.909 116.839C148.909 116.839 147.232 118.45 144.903 120.286C141.513 122.964 136.747 126.127 133.751 125.522C132.365 125.244 131.02 124.151 129.797 122.715C126.576 118.922 124.212 112.719 124.212 112.719L122.609 111.93C121.932 111.594 121.377 111.054 121.016 110.385C120.445 109.318 119.536 107.436 118.568 104.69C116.955 100.117 117.036 96.3013 117.036 96.3013L119.026 86.0083C119.026 86.0083 123.325 82.6677 125.044 81.9404C126.766 81.2131 135.796 84.0686 136.331 84.8961C136.87 85.7209 148.908 116.84 148.908 116.84L148.909 116.839Z" fill="#F3F3F3"/>
<path d="M134.517 126.565C134.186 126.565 133.869 126.536 133.562 126.474C128.49 125.455 124.35 115.702 123.448 113.424L122.183 112.799C121.321 112.373 120.623 111.697 120.165 110.844C119.562 109.719 118.636 107.795 117.656 105.014C116.003 100.326 116.065 96.4421 116.069 96.2788C116.08 95.7499 116.511 95.3292 117.036 95.3292C117.042 95.3292 117.049 95.3292 117.056 95.3292C117.59 95.3405 118.014 95.7831 118.003 96.3186C118.003 96.3551 117.951 100.031 119.48 104.367C120.419 107.031 121.298 108.86 121.869 109.924C122.135 110.419 122.54 110.812 123.039 111.058L124.639 111.849C124.858 111.958 125.029 112.145 125.116 112.374C126.313 115.513 130.231 123.825 133.943 124.572C137.479 125.283 144.715 119.411 147.771 116.58C143.148 104.635 136.356 87.2147 135.548 85.4861C134.252 84.569 126.595 82.3944 125.418 82.835C124.107 83.3898 120.786 85.8683 119.617 86.7761C119.194 87.1033 118.587 87.0263 118.26 86.6036C117.933 86.1802 118.01 85.5704 118.432 85.2425C118.883 84.8928 122.884 81.8011 124.669 81.0459C125.669 80.6232 127.932 80.9112 131.397 81.902C133.297 82.4455 136.571 83.4886 137.142 84.3646C137.692 85.21 146.978 109.166 149.811 116.487C149.952 116.853 149.861 117.268 149.578 117.539C148.567 118.509 140.009 126.564 134.516 126.565L134.517 126.565Z" fill="black"/>
<path d="M214.747 117.68C214.379 118.043 213.905 118.495 213.354 119.006C210.374 121.772 205.024 126.269 200.641 127.45C199.864 127.657 199.038 127.492 198.399 127.001C196.339 125.423 191.379 121.212 187.989 114.98C187.905 114.828 187.824 114.676 187.744 114.521C187.744 114.521 183.065 115.042 177.769 115.155C177.55 115.161 177.324 115.165 177.101 115.168L177.598 94.1613C177.598 94.1613 177.904 94.1739 178.44 94.213C181.449 94.4167 191.681 95.3869 195.241 99.1608C199.434 103.608 204.271 110.776 204.271 110.776C204.271 110.776 214.021 104.257 215.51 115.472C215.617 116.287 215.333 117.105 214.746 117.68H214.747Z" fill="#F3F3F3"/>
<path d="M197.258 62.375C197.258 62.375 182.991 80.9955 167.885 81.9398C153.45 82.8423 164.882 67.5265 165.921 66.1655C165.972 66.1011 165.998 66.0686 165.998 66.0686L174.393 63.2649C174.393 63.2649 182.907 60.8169 186.615 52.4184C185.728 47.7328 188.589 45.8959 192.34 48.7932C193.678 47.5901 195.239 47.3021 196.671 47.6936C200.873 48.8284 203.988 55.7457 197.258 62.375Z" fill="#F3F3F3"/>
<g opacity="0.2">
<path d="M197.258 62.375C197.258 62.375 182.991 80.9955 167.885 81.9398C153.45 82.8423 164.882 67.5265 165.921 66.1655C167.539 66.7667 169.22 68.0249 170.777 70.1364C177.695 79.5111 191.13 58.2521 191.13 58.2521C198.409 56.8068 197.042 49.275 196.671 47.6936C200.873 48.8284 203.988 55.7457 197.258 62.375Z" fill="black"/>
</g>
<path d="M166.732 82.9471C163.412 82.9471 161.233 81.9922 160.245 80.1016C157.718 75.2667 164.461 66.4548 165.238 65.466C165.569 65.0453 166.175 64.9729 166.597 65.3041C167.017 65.6359 167.089 66.2457 166.758 66.6664C164.863 69.0806 160.305 76.0391 161.959 79.2011C162.677 80.5728 164.646 81.1674 167.826 80.9703C182.312 80.0658 196.351 61.9655 196.492 61.7824C196.519 61.7465 196.548 61.7134 196.581 61.6815C201.213 57.1199 200.863 52.4144 198.579 49.9723C197.192 48.4899 194.925 47.7725 192.987 49.5138C192.64 49.825 192.12 49.8449 191.751 49.5596C190.339 48.4686 189.039 48.0977 188.274 48.5702C187.5 49.0466 187.229 50.4515 187.567 52.2359C187.604 52.4296 187.581 52.6294 187.501 52.8099C183.654 61.5203 175.026 64.0897 174.661 64.1946C174.148 64.3425 173.613 64.0439 173.464 63.5296C173.317 63.0147 173.613 62.4785 174.126 62.3298C174.206 62.3066 182.078 59.9396 185.612 52.2896C185.206 49.7646 185.8 47.817 187.26 46.9171C188.613 46.083 190.427 46.3299 192.313 47.5794C194.699 45.929 197.818 46.3239 199.99 48.6445C202.89 51.7435 203.493 57.5573 197.985 63.018C196.956 64.3472 183.055 81.963 167.946 82.906C167.526 82.9325 167.122 82.9458 166.733 82.9458L166.732 82.9471Z" fill="black"/>
<path d="M188.374 71.9374C186.565 71.9374 184.971 71.3594 183.624 70.2134C179.855 67.0049 179.436 60.442 179.42 60.1639C179.389 59.629 179.796 59.1698 180.33 59.1393C180.862 59.1075 181.32 59.5169 181.351 60.0518C181.357 60.1453 181.752 66.0792 184.881 68.7369C186.055 69.735 187.444 70.1351 189.124 69.9553C189.655 69.9022 190.132 70.2858 190.188 70.818C190.244 71.3508 189.859 71.8286 189.328 71.885C189.004 71.9189 188.685 71.9361 188.374 71.9361L188.374 71.9374Z" fill="black"/>
<path d="M176.921 115.112C176.799 115.397 176.67 115.685 176.538 115.976L173.742 125.137C172.574 129.474 167.418 133.241 161.622 128.918C161.293 128.672 160.961 128.4 160.629 128.103L156.22 122.04C156.22 122.04 144.394 123.198 138.377 114.899C132.485 106.776 129.579 95.2442 128.247 88.796C128.218 88.6567 128.192 88.518 128.163 88.3819C128.163 88.3819 123.164 89.6202 120.503 91.2374C117.843 92.8546 113.247 104.981 113.247 104.981C115.282 109.211 113.992 110.877 109.403 109.993C105.52 114.867 100.466 112.733 98.2476 108.819C97.4058 107.342 96.9703 105.608 97.1543 103.904C97.1576 103.866 97.1642 103.826 97.1676 103.788C97.2092 103.455 97.2741 103.125 97.3641 102.799C97.3641 102.799 102.685 88.812 110.854 79.864C119.027 70.9194 129.13 70.1364 129.13 70.1364L167.459 72.1318C167.459 72.1318 166.582 75.3104 170.349 81.6975C174.054 87.9778 184.093 98.3226 176.921 115.113V115.112Z" fill="#F3F3F3"/>
<path d="M147.953 105.095C144.012 105.095 141.065 96.5038 139.257 89.1047C138.883 87.5718 139.661 86.0031 141.108 85.3746C144.869 83.7415 154.901 79.7015 166.797 77.4586C168.182 77.1998 169.535 77.9191 170.09 79.2125C171.275 81.9737 173.383 87.2639 174.193 91.6695C174.444 93.0359 173.879 94.4606 172.753 95.2994C170.754 96.7905 166.164 99.569 157.892 101.43C157.37 101.549 156.853 101.219 156.736 100.696C156.619 100.173 156.946 99.6546 157.468 99.5371C165.391 97.754 169.722 95.1408 171.598 93.7419C172.137 93.3411 172.408 92.6649 172.29 92.0205C171.515 87.8021 169.465 82.6652 168.312 79.9789C168.118 79.5257 167.641 79.2735 167.154 79.3651C155.45 81.5709 145.577 85.5472 141.877 87.1544C141.298 87.4052 140.987 88.031 141.136 88.6422C143.681 99.0593 146.544 103.46 148.124 103.136C148.645 103.031 149.158 103.37 149.264 103.895C149.37 104.421 149.031 104.931 148.508 105.038C148.321 105.076 148.136 105.095 147.953 105.095V105.095Z" fill="black"/>
<path d="M166.786 131.798C164.512 131.798 162.16 130.782 159.982 128.826C159.931 128.78 159.886 128.729 159.846 128.674L155.754 123.044C153.243 123.172 143.175 123.164 137.594 115.468C133.255 109.487 129.748 100.552 127.425 89.5831C125.872 90.0204 122.823 90.962 121.006 92.0663C119.322 93.0889 116.068 100.343 114.298 104.943C115.332 107.237 115.423 108.891 114.578 109.993C113.75 111.072 112.179 111.418 109.786 111.043C107.346 113.795 104.161 114.53 101.169 112.998C97.4859 111.112 95.3609 106.419 96.433 102.538C96.4416 102.509 96.4509 102.479 96.4614 102.451C96.6812 101.873 101.942 88.1889 110.143 79.2084C118.475 70.084 128.629 69.202 129.057 69.1689C129.099 69.1655 129.14 69.1649 129.182 69.1675L167.51 71.1616C167.803 71.1769 168.073 71.3249 168.244 71.5631C168.413 71.798 168.468 72.096 168.396 72.3754C168.378 72.4557 167.765 75.4093 171.184 81.2025C171.7 82.0771 172.363 83.0639 173.066 84.1091C177.587 90.834 184.416 100.993 177.446 116.321L174.669 125.422C173.896 128.289 171.635 130.682 168.918 131.489C168.221 131.696 167.508 131.798 166.788 131.798L166.786 131.798ZM161.348 127.447C163.708 129.538 166.132 130.292 168.367 129.629C170.454 129.009 172.198 127.147 172.808 124.885L175.612 115.692C175.625 115.65 175.64 115.611 175.658 115.572C182.221 101.201 175.745 91.5686 171.46 85.1941C170.741 84.125 170.062 83.115 169.517 82.1913C166.823 77.6271 166.382 74.5924 166.396 73.0476L129.15 71.1092C128.353 71.1915 119.061 72.3143 111.569 80.5197C103.842 88.9819 98.6155 102.247 98.284 103.101C97.374 106.493 99.5222 109.978 102.048 111.271C103.4 111.965 106.057 112.64 108.648 109.387C108.872 109.106 109.234 108.973 109.586 109.04C112.167 109.537 112.864 109.046 113.043 108.811C113.222 108.577 113.517 107.776 112.376 105.403C112.261 105.162 112.249 104.886 112.343 104.636C113.13 102.559 117.198 92.1107 120.002 90.4073C122.757 88.733 127.72 87.4908 127.93 87.439C128.186 87.3753 128.457 87.4191 128.679 87.5604C128.902 87.7018 129.057 87.9281 129.11 88.1869C131.374 99.3472 134.848 108.386 139.157 114.327C144.787 122.089 156.012 121.085 156.126 121.074C156.466 121.044 156.8 121.191 157.002 121.468L161.348 127.448L161.348 127.447Z" fill="black"/>
<path d="M118.054 56.6581C119.45 61.6948 122.125 66.409 125.997 70.2917C126.788 71.0827 127.624 71.8392 128.51 72.5559C128.94 72.9056 129.386 73.246 129.842 73.5798C131.22 74.5799 132.652 75.4518 134.125 76.1997C135.395 76.8474 136.696 77.4002 138.016 77.8633C139.61 78.4234 141.234 78.8481 142.873 79.1441C143.47 79.2503 144.069 79.3405 144.669 79.4142C155.65 80.7493 167.011 76.3444 174.015 66.908C184.335 53.0097 181.288 33.4621 167.214 23.2473C164.502 21.2818 161.578 19.8 158.551 18.7993C158.198 18.6791 157.841 18.5683 157.482 18.4655C156.522 18.1834 155.555 17.9479 154.582 17.7594C152.332 17.3241 150.051 17.1376 147.786 17.1907C145.521 17.2411 143.266 17.5324 141.069 18.0574C140.37 18.2239 139.676 18.413 138.989 18.6274C137.958 18.9492 136.943 19.3208 135.944 19.7495C130.967 21.8697 126.479 25.2879 123.042 29.9185C117.105 37.9135 115.593 47.7759 118.055 56.6574L118.054 56.6581Z" fill="white"/>
<path d="M148.533 79.7374C147.247 79.7374 145.955 79.6597 144.659 79.5025C144.06 79.4281 143.455 79.3372 142.858 79.2317C141.197 78.9311 139.559 78.4991 137.987 77.9463C136.643 77.4752 135.33 76.9138 134.085 76.278C132.597 75.5235 131.151 74.6396 129.789 73.6515C129.293 73.2879 128.856 72.9521 128.454 72.6249C127.582 71.9202 126.735 71.1564 125.935 70.3548C122.151 66.561 119.396 61.8335 117.968 56.6814C115.392 47.389 117.215 37.6149 122.97 29.8654C126.297 25.3828 130.771 21.8565 135.908 19.6673C136.881 19.2499 137.908 18.871 138.962 18.5425C139.639 18.3315 140.342 18.139 141.048 17.9711C143.251 17.4449 145.517 17.1522 147.784 17.1018C150.068 17.0467 152.365 17.2405 154.598 17.6725C155.568 17.8603 156.547 18.0985 157.506 18.3799C157.891 18.4907 158.243 18.6002 158.58 18.715C161.668 19.7363 164.591 21.2367 167.266 23.175C174.119 28.1494 178.594 35.4635 179.864 43.7704C181.124 52.011 179.072 60.2475 174.086 66.9611C168.088 75.0431 158.548 79.7367 148.533 79.7374ZM148.531 17.271C148.283 17.271 148.035 17.2737 147.787 17.2797C145.533 17.3301 143.279 17.6207 141.089 18.1437C140.386 18.3109 139.688 18.502 139.014 18.7124C137.966 19.0395 136.945 19.4158 135.978 19.8312C130.869 22.0078 126.42 25.5142 123.112 29.9716C117.39 37.6766 115.578 47.3943 118.139 56.6336C119.56 61.7559 122.298 66.4568 126.06 70.2287C126.856 71.0257 127.7 71.7848 128.566 72.4863C128.966 72.8121 129.4 73.1459 129.894 73.5075C131.248 74.4897 132.685 75.3689 134.166 76.1201C135.404 76.7519 136.709 77.3099 138.046 77.7791C139.608 78.3286 141.238 78.7579 142.889 79.0565C143.482 79.162 144.085 79.2523 144.68 79.3259C155.999 80.7029 167.212 75.9243 173.943 66.8556C178.901 60.1799 180.94 51.9911 179.688 43.7976C178.426 35.5385 173.977 28.2662 167.162 23.3204C164.502 21.3926 161.595 19.9002 158.523 18.8842C158.188 18.7701 157.839 18.6613 157.456 18.5518C156.502 18.2717 155.529 18.0348 154.565 17.8477C152.585 17.4648 150.559 17.2717 148.531 17.2717V17.271Z" fill="black"/>
<g opacity="0.2">
<path d="M174.015 66.9073C167.012 76.345 155.649 80.7499 144.669 79.4134C144.069 79.3398 143.47 79.2502 142.873 79.1433C141.235 78.848 139.61 78.422 138.017 77.8633C136.697 77.3994 135.395 76.8466 134.126 76.2003C132.651 75.4531 131.22 74.5804 129.841 73.5804C129.387 73.2446 128.941 72.9062 128.51 72.5565C127.623 71.8391 126.788 71.082 125.998 70.291C122.125 66.4083 119.45 61.6954 118.054 56.6567C117.286 53.8902 116.905 51.0261 116.923 48.1534C118.366 52.9299 120.971 57.39 124.666 61.0942C125.455 61.8872 126.291 62.6423 127.178 63.3597C127.608 63.7094 128.054 64.0478 128.51 64.3836C129.889 65.3837 131.319 66.2556 132.793 67.0042C134.063 67.6505 135.364 68.2033 136.683 68.6671C138.277 69.2259 139.903 69.6513 141.54 69.9472C142.139 70.0534 142.737 70.143 143.337 70.2166C154.318 71.5538 165.678 67.1488 172.683 57.7105C176.771 52.206 178.76 45.8149 178.798 39.4702C181.541 48.531 180.108 58.7039 174.016 66.9066L174.015 66.9073Z" fill="black"/>
</g>
<path d="M148.532 80.3345C147.223 80.3345 145.906 80.2556 144.587 80.0957C143.977 80.02 143.361 79.9278 142.754 79.8196C141.06 79.5137 139.391 79.0731 137.79 78.5103C136.421 78.0299 135.084 77.4585 133.816 76.8108C132.3 76.0424 130.828 75.1419 129.441 74.1352C128.934 73.7636 128.49 73.4219 128.08 73.0887C127.193 72.3714 126.33 71.5937 125.515 70.7774C121.659 66.9113 118.852 62.0923 117.396 56.8419C114.77 47.3704 116.628 37.4078 122.493 29.5097C125.884 24.9421 130.442 21.3494 135.677 19.1184C136.667 18.6937 137.713 18.3082 138.786 17.973C139.477 17.7574 140.192 17.5616 140.911 17.3904C143.154 16.8549 145.462 16.5569 147.771 16.5052C150.101 16.4514 152.437 16.6465 154.712 17.0865C155.701 17.2783 156.697 17.5205 157.675 17.8071C158.066 17.9193 158.426 18.0314 158.773 18.1502C161.915 19.1881 164.892 20.717 167.617 22.6919C174.601 27.7611 179.16 35.2146 180.454 43.6801C181.738 52.0799 179.647 60.4744 174.565 67.3181C168.454 75.5527 158.736 80.3345 148.534 80.3345H148.532ZM148.531 17.8682C148.288 17.8682 148.045 17.8709 147.801 17.8768C145.588 17.9259 143.376 18.2113 141.227 18.7249C140.537 18.8895 139.852 19.0766 139.191 19.283C138.163 19.6042 137.161 19.9731 136.212 20.3806C131.199 22.5167 126.835 25.9561 123.589 30.3286C117.978 37.8843 116.201 47.4142 118.713 56.4743C120.105 61.497 122.791 66.1077 126.481 69.8066C127.261 70.5883 128.089 71.3335 128.938 72.0217C129.332 72.3415 129.759 72.67 130.245 73.0257C131.571 73.9879 132.981 74.8506 134.433 75.5872C135.649 76.2076 136.929 76.7551 138.241 77.2156C139.774 77.7545 141.373 78.1765 142.993 78.4692C143.574 78.572 144.167 78.6616 144.752 78.734C155.863 80.085 166.861 75.3961 173.465 66.4992C178.326 59.9528 180.327 51.9227 179.099 43.8885C177.86 35.788 173.497 28.6556 166.812 23.8034C164.202 21.9115 161.35 20.4469 158.335 19.4509C158.004 19.3381 157.665 19.2319 157.292 19.1251C156.351 18.8483 155.397 18.6161 154.451 18.4336C152.508 18.058 150.52 17.8682 148.53 17.8682H148.531Z" fill="black"/>
<path d="M148.532 80.5336C147.215 80.5336 145.89 80.454 144.562 80.2927C143.948 80.2171 143.329 80.1235 142.719 80.016C141.014 79.7081 139.334 79.2648 137.723 78.6981C136.346 78.215 135.001 77.6397 133.725 76.988C132.201 76.2149 130.72 75.3091 129.324 74.2965C128.814 73.9222 128.367 73.5785 127.954 73.2434C127.063 72.522 126.194 71.739 125.374 70.9181C121.494 67.0281 118.668 62.1785 117.204 56.8957C114.561 47.3644 116.431 37.3395 122.332 29.3909C125.743 24.7955 130.33 21.1796 135.597 18.9359C136.593 18.5086 137.645 18.1204 138.725 17.7833C139.42 17.5663 140.14 17.3692 140.864 17.1973C143.12 16.6585 145.441 16.3585 147.765 16.3068C150.109 16.253 152.458 16.4494 154.747 16.8914C155.742 17.0838 156.745 17.328 157.728 17.6167C158.121 17.7295 158.484 17.843 158.833 17.9618C161.992 19.0063 164.988 20.5438 167.729 22.5306C174.757 27.6317 179.344 35.1317 180.647 43.6503C181.939 52.1032 179.835 60.5507 174.721 67.4369C168.572 75.7212 158.795 80.533 148.53 80.5336H148.532ZM148.531 18.0673C148.289 18.0673 148.048 18.0699 147.806 18.0759C145.607 18.125 143.409 18.4084 141.273 18.9193C140.586 19.0826 139.907 19.2684 139.25 19.4734C138.228 19.7926 137.232 20.1596 136.29 20.5644C131.309 22.6866 126.973 26.1041 123.749 30.4487C118.175 37.9553 116.409 47.4221 118.904 56.4218C120.287 61.4121 122.956 65.9922 126.621 69.6672C127.397 70.4436 128.219 71.1849 129.064 71.8677C129.456 72.1862 129.879 72.5121 130.363 72.8658C131.679 73.8214 133.08 74.6781 134.524 75.41C135.732 76.0265 137.004 76.5706 138.307 77.0278C139.831 77.5634 141.419 77.9821 143.029 78.2734C143.606 78.3756 144.195 78.4645 144.777 78.5362C155.815 79.8807 166.745 75.2202 173.307 66.3804C178.136 59.8772 180.124 51.9001 178.903 43.919C177.673 35.8722 173.338 28.7857 166.697 23.9653C164.103 22.086 161.27 20.6308 158.274 19.6407C157.945 19.5285 157.609 19.4237 157.239 19.3175C156.303 19.0428 155.355 18.8118 154.414 18.63C152.484 18.2571 150.508 18.0679 148.531 18.0679V18.0673Z" fill="black"/>
<path d="M121.178 64.0452C136.274 80.6663 162.896 77.4678 169.257 56.2798C173.585 41.8651 162.64 26.5314 148.36 23.2931C137.966 20.9366 126.781 23.1278 118.689 38.0647C118.689 38.0647 116.141 45.2249 117.004 50.5841C117.866 55.9434 119.62 61.0132 119.62 61.0132L121.178 64.0445V64.0452Z" fill="black"/>
<path d="M169.257 56.2798C162.896 77.4672 136.273 80.6657 121.178 64.0459L120.863 63.4308C139.878 71.5207 162.417 64.3605 169.252 43.057C170.474 47.2961 170.592 51.8311 169.257 56.2798Z" fill="#220F2D"/>
<path d="M144.476 78.6756C140.946 78.6756 137.358 78.1175 133.871 76.9887L133.752 76.9396C132.229 76.1672 130.75 75.2627 129.357 74.252C128.848 73.8791 128.401 73.5353 127.989 73.2009C127.099 72.4809 126.232 71.6992 125.413 70.879C121.539 66.9949 118.719 62.1547 117.257 56.8804C114.619 47.3657 116.486 37.358 122.377 29.4241C125.783 24.836 130.361 21.2273 135.62 18.987L135.698 18.9539L135.781 18.9373C139.872 18.1177 144.366 18.2511 149.14 19.3334C157.729 21.2811 165.606 27.1698 170.21 35.0846C174.355 42.2123 175.43 50.1588 173.238 57.4597C170.851 65.4063 165.907 71.5426 158.942 75.2063C154.564 77.5083 149.581 78.6762 144.476 78.6762V78.6756ZM134.441 75.4299C142.532 78.0312 151.178 77.4147 158.173 73.7364C164.736 70.285 169.398 64.4905 171.654 56.9806C173.712 50.125 172.692 42.6456 168.78 35.9194C164.404 28.3942 156.925 22.7987 148.775 20.9506C144.262 19.9274 140.028 19.792 136.188 20.5465C131.233 22.6746 126.917 26.0849 123.704 30.4142C118.12 37.9347 116.351 47.4188 118.851 56.4358C120.237 61.4353 122.91 66.0234 126.582 69.7057C127.359 70.4841 128.183 71.226 129.029 71.9109C129.421 72.2294 129.846 72.5565 130.329 72.9109C131.631 73.8552 133.016 74.7039 134.44 75.4306L134.441 75.4299Z" fill="black"/>
<path d="M144.354 74.978C135.757 74.978 127.184 71.1504 120.933 64.2682L120.884 64.1972L119.307 61.1228C119.29 61.0717 117.534 55.964 116.677 50.6379C115.811 45.2568 118.272 38.2499 118.378 37.9539L118.398 37.9068C125.361 25.055 135.466 20.0302 148.432 22.9693C155.967 24.6774 162.876 29.8441 166.917 36.7907C170.548 43.0338 171.492 49.9889 169.574 56.3754C166.789 65.6485 159.894 72.1716 150.658 74.2739C148.578 74.7471 146.464 74.978 144.353 74.978H144.354ZM121.452 63.8541C129.077 72.2274 140.207 75.9701 150.512 73.6269C159.511 71.5797 166.228 65.2218 168.941 56.1849C170.805 49.9763 169.883 43.2076 166.346 37.1251C162.397 30.3359 155.647 25.2859 148.288 23.6176C135.652 20.7529 125.797 25.6595 118.993 38.2015C118.835 38.6567 116.517 45.4725 117.331 50.5331C118.149 55.6235 119.799 60.5156 119.925 60.8845L121.452 63.8555L121.452 63.8541Z" fill="black"/>
<path d="M183.222 58.1008C182.181 64.1734 177.68 68.6533 173.167 68.1058C168.654 67.5577 165.84 62.1899 166.881 56.1173C166.887 56.0788 166.895 56.039 166.903 56.0012C167.979 49.9877 172.454 45.5681 176.935 46.1129C180.422 46.5363 182.894 49.8357 183.359 54.1139C183.496 55.3734 183.458 56.7199 183.222 58.1015V58.1008Z" fill="white"/>
<g opacity="0.2">
<path d="M183.222 58.1007C182.181 64.1733 177.68 68.6532 173.167 68.1058C168.654 67.5576 165.84 62.1898 166.881 56.1172C166.887 56.0787 166.895 56.0389 166.903 56.0011C167.292 56.6846 167.959 57.392 169.041 57.3124C170.936 57.1717 174.893 53.6659 174.893 53.6659C174.893 53.6659 178.566 53.8364 183.36 54.1145C183.496 55.374 183.459 56.7204 183.222 58.102L183.222 58.1007Z" fill="black"/>
</g>
<path d="M173.906 69.0342C173.624 69.0342 173.343 69.0176 173.061 68.9831C171.052 68.7396 169.293 67.6712 167.973 65.8941C166.081 63.3465 165.366 59.7279 166.011 55.9666C167.128 49.4455 172.07 44.6284 177.042 45.2343C179.05 45.4778 180.809 46.5462 182.129 48.3233C184.021 50.8709 184.736 54.4895 184.092 58.2507C183.038 64.4016 178.575 69.0342 173.905 69.0342H173.906ZM176.177 46.9517C172.354 46.9517 168.659 50.9618 167.75 56.2659C167.196 59.5036 167.808 62.7081 169.389 64.8369C170.413 66.2159 171.756 67.0421 173.273 67.2265C173.491 67.2531 173.709 67.2657 173.926 67.2657C177.749 67.2657 181.443 63.2556 182.353 57.9508C182.907 54.7131 182.295 51.5093 180.714 49.3798C179.69 48.0008 178.347 47.1747 176.83 46.9902C176.612 46.9636 176.394 46.951 176.177 46.951V46.9517Z" fill="black"/>
<path d="M183.606 59.6437C184.739 54.7413 182.956 50.1393 179.624 49.3647C176.291 48.5901 172.671 51.9363 171.538 56.8387C170.404 61.7411 172.187 66.3431 175.52 67.1177C178.853 67.8923 182.473 64.5461 183.606 59.6437Z" fill="white"/>
<g opacity="0.2">
<path d="M176.005 67.2032C179.418 67.5908 182.885 63.8939 183.754 58.9448C183.85 58.4079 183.907 57.8771 183.936 57.3595C182.449 60.6151 179.766 62.7379 177.113 62.434C174.118 62.0909 172.145 58.7616 172.257 54.6414C171.876 55.5372 171.582 56.5134 171.401 57.5419C170.533 62.491 172.595 66.8157 176.005 67.2032H176.005Z" fill="black"/>
</g>
<path d="M176.513 68.1171C176.311 68.1171 176.109 68.1058 175.906 68.0825C174.406 67.912 173.085 67.1144 172.086 65.7739C170.552 63.7174 169.971 60.5826 170.531 57.3893C171.493 51.9054 175.329 47.9583 179.248 48.4049C180.748 48.5755 182.07 49.3731 183.069 50.7136C184.602 52.7707 185.183 55.9049 184.623 59.0981C183.711 64.2987 180.22 68.1171 176.513 68.1171ZM178.664 50.1422C175.878 50.1422 173.01 53.4794 172.27 57.6959C171.793 60.4173 172.252 63.0412 173.499 64.7141C174.2 65.6531 175.1 66.2092 176.105 66.3233C178.997 66.6512 182.11 63.2038 182.885 58.7909C183.363 56.0695 182.903 53.4456 181.655 51.7727C180.955 50.8337 180.054 50.2769 179.05 50.1628C178.921 50.1482 178.792 50.1409 178.663 50.1409L178.664 50.1422Z" fill="black"/>
<g opacity="0.5">
<path d="M153.821 31.3817C153.821 31.3817 141.842 27.6185 132.928 33.4276C132.919 33.4336 132.91 33.4396 132.9 33.4462C131.026 34.6705 128.226 37.9965 127.236 39.9899C125.925 42.6264 125.414 44.6338 125.033 46.4175C123.875 51.8444 124.36 54.6023 124.36 54.6023C121.847 51.0806 120.781 47.4567 121.7 42.927C121.792 42.4804 121.904 42.0238 122.033 41.5587C122.062 41.4512 122.094 41.3456 122.127 41.2395C122.125 41.2381 122.127 41.2355 122.13 41.2335C122.459 40.3091 122.937 39.1113 123.592 37.804C125.563 33.8609 129.119 28.9244 134.951 27.5097C145.855 24.8639 154.396 30.9099 153.822 31.3817H153.821Z" fill="white"/>
</g>
<g opacity="0.5">
<path d="M160.268 52.1554C162.484 52.0152 164.15 49.8322 163.99 47.2795C163.829 44.7269 161.902 42.7711 159.686 42.9113C157.471 43.0515 155.804 45.2345 155.965 47.7872C156.126 50.3399 158.052 52.2956 160.268 52.1554Z" fill="white"/>
</g>
<g opacity="0.5">
<path d="M160.984 58.5706C161.935 58.4205 162.567 57.4099 162.395 56.3132C162.223 55.2166 161.312 54.4493 160.361 54.5994C159.41 54.7494 158.778 55.7601 158.95 56.8567C159.122 57.9533 160.033 58.7207 160.984 58.5706Z" fill="white"/>
</g>
<path d="M127.872 87.455L132.311 86.7297C132.675 86.666 132.838 87.1916 132.505 87.3468L128.453 89.3058C127.089 89.8804 126.423 87.7709 127.872 87.455Z" fill="black"/>
<path d="M117.038 96.6544C116.989 96.6544 116.939 96.6505 116.889 96.6425C107.641 95.2091 104.379 89.0868 104.245 88.8273C103.999 88.3515 104.184 87.7662 104.659 87.5194C105.132 87.2718 105.714 87.4576 105.961 87.9315C106.08 88.1558 108.952 93.4493 117.184 94.7254C117.712 94.8076 118.074 95.3027 117.992 95.8322C117.918 96.312 117.507 96.6544 117.038 96.6544Z" fill="black"/>
<path d="M145.071 106.885C146.043 104.915 147.53 103.251 149.35 102.039C150.273 101.442 151.252 100.94 152.25 100.475C155.513 98.9212 159.222 99.0473 162.047 101.438C162.472 101.79 162.87 102.211 163.244 102.617C163.921 103.342 165.741 105.293 166.44 106.042C166.443 106.044 165.187 105.904 165.188 105.905C167.412 104.394 170.333 103.963 172.861 104.937C176.369 106.239 177.901 110.123 177.727 113.638C177.72 114.484 177.611 115.311 177.493 116.133C177.417 116.663 176.927 117.031 176.397 116.954C175.855 116.877 175.485 116.359 175.583 115.818C176.362 111.579 175.219 106.546 170.176 106.358C168.807 106.316 167.412 106.742 166.281 107.506C165.881 107.78 165.348 107.712 165.028 107.367C165.028 107.367 162.897 105.084 162.897 105.083C162.703 104.876 161.739 103.842 161.565 103.657C159.252 101.097 156.046 100.812 153.029 102.25C152.134 102.638 151.293 103.156 150.491 103.73C149.052 104.71 147.007 106.227 145.581 107.28C145.328 107.505 144.912 107.194 145.071 106.884V106.885Z" fill="black"/>
<path d="M156.221 123.01C155.862 123.01 155.517 122.808 155.349 122.462L151.721 114.943C151.489 114.461 151.69 113.881 152.171 113.647C152.651 113.414 153.23 113.616 153.463 114.098L157.091 121.616C157.324 122.099 157.123 122.679 156.642 122.912C156.506 122.978 156.363 123.009 156.221 123.009V123.01Z" fill="black"/>
<path d="M163.234 130.737C163.054 130.737 162.872 130.677 162.722 130.554C158.622 127.175 160.401 120.616 161.97 114.829C162.137 114.215 162.301 113.611 162.454 113.023C164.627 104.679 169.556 104.584 169.764 104.584C170.21 104.584 170.57 104.945 170.57 105.392C170.57 105.839 170.214 106.196 169.772 106.2C169.591 106.206 165.845 106.4 164.013 113.431C163.859 114.024 163.694 114.633 163.526 115.253C162.084 120.567 160.451 126.589 163.745 129.304C164.089 129.587 164.139 130.097 163.857 130.442C163.697 130.637 163.466 130.737 163.233 130.737H163.234Z" fill="black"/>
<path d="M167.085 131.793C166.938 131.793 166.79 131.76 166.651 131.689C165.117 130.915 164.074 129.54 163.552 127.599C161.968 121.721 165.717 111.656 167.664 108.656C169.762 105.422 173.708 106.074 175.501 106.871C175.989 107.088 176.209 107.661 175.993 108.151C175.777 108.64 175.208 108.861 174.719 108.646C174.567 108.58 171.007 107.063 169.286 109.714C167.533 112.415 164.007 121.85 165.42 127.094C165.799 128.497 166.486 129.433 167.521 129.956C167.998 130.197 168.191 130.78 167.95 131.258C167.78 131.597 167.439 131.793 167.085 131.793V131.793Z" fill="black"/>
<path d="M166.701 113.668C166.267 113.668 165.908 113.322 165.895 112.883C165.882 112.437 166.232 112.065 166.678 112.052L176.137 111.772C176.145 111.772 176.153 111.772 176.161 111.772C176.595 111.772 176.954 112.119 176.966 112.557C176.98 113.003 176.63 113.376 176.184 113.389L166.725 113.668C166.717 113.668 166.709 113.668 166.701 113.668Z" fill="black"/>
<path d="M165.393 119.372C165.088 119.372 164.796 119.197 164.66 118.901C164.474 118.495 164.651 118.016 165.056 117.829C165.219 117.754 165.422 117.661 176.101 116.855C176.534 116.82 176.931 117.155 176.965 117.601C176.998 118.046 176.665 118.434 176.221 118.467C172.424 118.754 166.238 119.242 165.6 119.345C165.531 119.364 165.462 119.373 165.393 119.373V119.372ZM165.729 119.298C165.729 119.298 165.729 119.298 165.728 119.298C165.728 119.298 165.728 119.298 165.729 119.298Z" fill="black"/>
<path d="M165.756 123.811C165.146 123.811 164.704 123.786 164.522 123.728C164.098 123.593 163.863 123.138 163.998 122.713C164.131 122.296 164.565 122.063 164.983 122.179C165.61 122.288 170.05 122.044 174.004 121.745C174.449 121.709 174.835 122.045 174.869 122.49C174.903 122.935 174.57 123.324 174.126 123.357C171.632 123.547 167.771 123.811 165.757 123.811L165.756 123.811ZM164.993 122.182C164.999 122.184 165.005 122.186 165.011 122.188C165.005 122.186 164.999 122.184 164.993 122.182Z" fill="black"/>
<path d="M172.345 128.103H164.766C164.32 128.103 163.96 127.741 163.96 127.295C163.96 126.848 164.32 126.486 164.766 126.486H172.345C172.79 126.486 173.151 126.848 173.151 127.295C173.151 127.741 172.79 128.103 172.345 128.103Z" fill="black"/>
<path d="M154.107 118.469C154.091 118.469 154.075 118.469 154.06 118.467C153.615 118.442 153.275 118.059 153.301 117.613C153.921 106.946 164.072 104.467 164.175 104.443C164.609 104.341 165.042 104.614 165.142 105.048C165.242 105.483 164.973 105.917 164.539 106.018C164.164 106.106 155.459 108.269 154.911 117.707C154.886 118.136 154.531 118.468 154.107 118.468V118.469Z" fill="black"/>
<path d="M166.021 107.461C163.962 108.242 162.359 109.983 161.34 111.913C161.256 112.095 161.021 112.585 160.939 112.764C160.668 113.435 160.434 114.172 160.249 114.872C160.209 115.073 159.898 115.023 159.932 114.816C160.029 114.081 160.178 113.284 160.368 112.563C160.903 110.728 161.814 109.012 163.173 107.644C163.848 106.965 164.594 106.36 165.469 105.94C166.532 105.5 167.121 107.111 166.021 107.461H166.021Z" fill="black"/>
<path d="M129.307 97.6392C131.034 96.6809 136.925 93.5308 142.069 92.1943C142.451 92.0948 142.848 92.2899 143.013 92.6496C143.778 94.3152 145.816 98.7726 145.685 98.7288C145.532 98.6777 137.653 102.069 132.401 104.973C131.99 105.201 131.474 105.039 131.266 104.616C130.6 103.259 129.278 100.42 128.899 98.5237C128.828 98.17 128.993 97.8137 129.308 97.6385L129.307 97.6392Z" fill="#F3F3F3"/>
<path d="M132.001 106.046C131.821 106.046 131.64 106.018 131.466 105.963C131.002 105.817 130.613 105.482 130.398 105.044C129.653 103.527 128.344 100.688 127.949 98.7148C127.795 97.9437 128.152 97.1706 128.838 96.7897C130.556 95.8362 136.571 92.6197 141.825 91.2553C142.66 91.039 143.528 91.4538 143.891 92.2434C145.904 96.6241 146.744 99.0013 146.41 99.3751C146.264 99.539 146.069 99.6445 145.861 99.683C145.022 99.9631 137.791 103.101 132.867 105.823C132.601 105.97 132.301 106.045 132 106.045L132.001 106.046ZM129.868 98.4368C130.247 100.194 131.48 102.844 132.067 104.05C135.061 102.404 138.659 100.723 140.555 99.8595C142.478 98.9836 143.67 98.4594 144.43 98.1534C144.058 97.2894 143.349 95.7001 142.185 93.1665C137.269 94.4691 131.634 97.4606 129.867 98.4361L129.868 98.4368ZM145.38 99.6498C145.415 99.6618 145.45 99.6711 145.483 99.6777C145.448 99.6704 145.414 99.6611 145.38 99.6498Z" fill="black"/>
<path d="M151.581 102.556C151.366 102.556 151.15 102.485 150.971 102.339C147.151 99.2258 144.187 86.5458 143.862 85.1105C143.743 84.5875 144.069 84.0679 144.591 83.9492C145.113 83.8297 145.63 84.1569 145.749 84.6798C146.592 88.3999 149.395 98.5536 152.191 100.832C152.606 101.17 152.669 101.781 152.332 102.197C152.141 102.433 151.862 102.556 151.581 102.556Z" fill="black"/>
<path d="M166.993 98.4435C166.653 98.4435 166.324 98.2636 166.146 97.9444L162.749 91.8108C162.499 91.3569 162.021 91.0756 161.504 91.0756H158.028C156.652 91.0756 155.43 90.2494 154.914 88.9706L152.222 82.3035C152.022 81.8071 152.261 81.2411 152.756 81.0406C153.252 80.8396 153.816 81.0791 154.016 81.5762L156.707 88.2427C156.926 88.7848 157.445 89.1352 158.028 89.1352H161.504C162.724 89.1352 163.849 89.7995 164.441 90.8685L167.838 97.0021C168.097 97.4706 167.928 98.0612 167.462 98.3214C167.313 98.4043 167.151 98.4435 166.993 98.4435Z" fill="black"/>
<path d="M165.31 87.5592C167.169 87.5592 168.676 85.9664 168.676 84.0016C168.676 82.0369 167.169 80.4441 165.31 80.4441C163.452 80.4441 161.945 82.0369 161.945 84.0016C161.945 85.9664 163.452 87.5592 165.31 87.5592Z" fill="#B58024"/>
<path d="M165.31 88.388C162.998 88.388 161.117 86.4204 161.117 84.0016C161.117 81.5828 162.998 79.6152 165.31 79.6152C167.623 79.6152 169.504 81.5828 169.504 84.0016C169.504 86.4204 167.623 88.388 165.31 88.388ZM165.31 81.2736C163.911 81.2736 162.772 82.4972 162.772 84.0009C162.772 85.5047 163.911 86.7283 165.31 86.7283C166.71 86.7283 167.849 85.5047 167.849 84.0009C167.849 82.4972 166.71 81.2736 165.31 81.2736Z" fill="black"/>
<path d="M164.801 80.4891C164.563 81.8681 164.445 83.1873 164.979 84.4342C165.494 85.5862 166.457 86.5909 167.885 86.2916C167.647 86.5936 167.266 86.794 166.85 86.8656C165.555 87.0534 164.354 86.0388 163.89 84.9007C163.246 83.4083 163.643 81.5681 164.802 80.4891H164.801Z" fill="black"/>
<path d="M199.982 128.506C199.207 128.506 198.438 128.252 197.812 127.772C195.752 126.194 190.685 121.906 187.199 115.552C185.641 115.706 181.506 116.074 177.116 116.138H177.102C176.575 116.138 176.142 115.712 176.135 115.181C176.127 114.646 176.554 114.205 177.089 114.197C182.542 114.118 187.588 113.562 187.638 113.556C188.032 113.511 188.417 113.716 188.602 114.07C191.912 120.399 196.968 124.682 198.988 126.23C199.393 126.54 199.904 126.643 200.391 126.512C205.452 125.149 212.143 118.876 214.073 116.986C214.441 116.625 214.62 116.107 214.553 115.599C214.17 112.719 213.198 110.905 211.662 110.208C209.319 109.143 205.921 110.839 204.81 111.581C204.368 111.877 203.77 111.76 203.472 111.318C203.424 111.247 198.63 104.162 194.54 99.8258C190.667 95.7181 177.689 95.1335 177.559 95.1282C177.025 95.1056 176.61 94.6544 176.632 94.1188C176.653 93.5973 177.082 93.1885 177.598 93.1885C177.611 93.1885 177.625 93.1885 177.638 93.1885C178.203 93.2117 191.534 93.8123 195.946 98.4919C199.392 102.146 203.196 107.509 204.559 109.478C206.112 108.635 209.562 107.123 212.46 108.439C214.644 109.431 215.994 111.754 216.47 115.343C216.618 116.454 216.226 117.586 215.424 118.372C212.841 120.902 206.256 126.94 200.892 128.384C200.593 128.465 200.288 128.504 199.982 128.504V128.506Z" fill="black"/>
<path d="M205.24 110.775L204.433 114.116C204.399 114.283 204.144 114.281 204.111 114.116L203.305 110.775C203.176 110.239 203.504 109.7 204.038 109.57C204.743 109.38 205.425 110.074 205.24 110.775Z" fill="black"/>
<path d="M196.595 126.332C196.218 126.332 195.88 126.064 195.805 125.678C195.721 125.239 196.006 124.815 196.443 124.729C208.668 122.344 213.725 111.624 213.775 111.516C213.961 111.11 214.438 110.932 214.844 111.119C215.248 111.305 215.426 111.784 215.24 112.19C215.025 112.661 209.809 123.767 196.751 126.316C196.699 126.326 196.647 126.331 196.596 126.331L196.595 126.332Z" fill="black"/>
<path d="M187.198 113.72L190.072 112.726C190.227 112.666 190.364 112.871 190.254 112.993L188.29 115.321C187.932 115.745 187.299 115.798 186.876 115.439C186.28 114.962 186.479 113.948 187.197 113.72H187.198Z" fill="black"/>
<path d="M188.953 117.108C188.586 117.108 188.254 116.854 188.168 116.48C188.068 116.045 188.339 115.611 188.773 115.511C198.916 113.175 199.06 104.773 199.06 104.688C199.061 104.243 199.422 103.882 199.866 103.882H199.869C200.314 103.884 200.673 104.247 200.672 104.693C200.672 104.791 200.51 114.467 189.133 117.087C189.073 117.101 189.012 117.108 188.953 117.108H188.953Z" fill="black"/>
<path d="M117.077 98.4422C116.799 98.4422 116.523 98.3227 116.332 98.0918C115.991 97.6797 116.047 97.0692 116.458 96.7268C116.652 96.5642 121.321 92.7299 128.74 91.6244C129.265 91.5448 129.76 91.9117 129.839 92.4413C129.918 92.9708 129.552 93.4645 129.024 93.5435C122.166 94.5654 117.738 98.1827 117.694 98.2192C117.514 98.3692 117.295 98.4415 117.077 98.4415V98.4422Z" fill="black"/>
<path d="M124.211 113.691C123.765 113.691 123.364 113.38 123.266 112.925C123.154 112.402 123.486 111.885 124.008 111.772C124.077 111.758 130.928 110.251 133.767 107.49C134.15 107.117 134.762 107.127 135.135 107.511C135.507 107.896 135.497 108.51 135.113 108.883C131.877 112.031 124.719 113.603 124.416 113.668C124.347 113.683 124.279 113.69 124.211 113.69V113.691Z" fill="black"/>
<path d="M124.956 93.8487L126.191 98.5708C126.21 98.6438 126.166 98.7181 126.094 98.7367C126.034 98.7526 125.973 98.7254 125.942 98.6743L123.468 94.4705C122.899 93.3815 124.584 92.6754 124.956 93.8487Z" fill="black"/>
<path d="M128.615 105.042C129.235 106.62 130.13 109.001 130.811 110.524C131.258 111.635 129.572 112.189 129.278 111.025C129.097 110.148 128.924 108.941 128.784 108.055L128.355 105.109C128.33 104.954 128.563 104.893 128.615 105.042V105.042Z" fill="black"/>
<path d="M141.096 117.001C140.398 119.76 136.931 121.626 134.534 122.721C134.322 122.821 134.148 122.511 134.346 122.382C135.432 121.618 136.532 120.763 137.431 119.791C138.194 118.955 139.046 117.881 139.168 116.836C139.307 115.566 141.173 115.722 141.096 117.001Z" fill="black"/>
<g opacity="0.2">
<path d="M130.814 87.4383L130.043 87.5571L128.247 88.7954C128.218 88.656 128.192 88.5173 128.163 88.3813C128.163 88.3813 123.164 89.6196 120.503 91.2368C117.843 92.8539 113.247 104.981 113.247 104.981C115.282 109.21 113.992 110.876 109.403 109.993C105.52 114.866 100.466 112.732 98.2476 108.819L97.1544 103.903L97.1127 103.71C97.1127 103.71 97.1352 103.739 97.1676 103.787C97.6706 104.541 101.544 110.42 105.104 105.708C105.104 105.708 110.345 108.907 109.78 103.71C109.42 100.396 112.109 95.0777 114.105 91.6568C116.076 88.2778 119.358 85.8371 123.184 85.056C124.943 84.697 127.002 84.5656 129.327 84.8948L131.084 85.8185C131.82 86.206 131.636 87.3109 130.815 87.4377L130.814 87.4383Z" fill="black"/>
</g>
<g opacity="0.2">
<path d="M144.904 120.286C141.514 122.964 136.748 126.127 133.752 125.522C132.366 125.244 131.02 124.151 129.798 122.715C136.183 120.028 129.266 108.03 129.266 108.03L125.138 95.6835L124.396 94.6032L117.843 96.3916C117.843 96.3916 118.762 93.2322 119.929 91.7125C121.097 90.1956 128.85 88.382 128.85 88.382L130.043 96.8966L128.882 97.9218L131.03 104.124L132.407 105.392L133.539 104.69C133.539 104.69 135.258 109.819 138.377 114.899C140.318 118.065 143.088 119.588 144.904 120.287V120.286Z" fill="black"/>
</g>
<g opacity="0.2">
<path d="M135.741 94.1592C135.741 94.1592 142.12 95.6025 139.132 101.585L145.326 98.6219L142.594 92.0317L141.143 92.4491" fill="black"/>
</g>
<g opacity="0.2">
<path d="M153.035 78.789C153.035 78.789 157.932 78.2827 160.055 80.4885L168.656 78.3762L166.993 73.2885L162.348 75.7139" fill="black"/>
</g>
<g opacity="0.2">
<path d="M166.347 87.3853C166.347 87.3853 168.664 95.5502 149.426 98.6226L151.581 101.181L157.93 100.13L169.198 96.3909C169.198 96.3909 174.137 94.0279 173.285 91.2514C172.433 88.4742 168.656 78.377 168.656 78.377L164.132 79.4878C164.132 79.4878 169.001 81.4328 166.347 87.3853Z" fill="black"/>
</g>
<g opacity="0.2">
<path d="M153.119 101.161C153.119 101.161 159.183 104.604 160.846 112.149C160.846 112.149 163.799 106.732 166.057 106.706C166.057 106.706 159.801 97.6643 153.12 101.161H153.119Z" fill="black"/>
</g>
<g opacity="0.2">
<path d="M137.661 113.69C137.661 113.69 151.211 123.521 152.748 114.844L155.678 122.074C155.678 122.074 143.129 123.208 137.661 113.691V113.69Z" fill="black"/>
</g>
<g opacity="0.2">
<path d="M177.34 115.564C177.217 115.849 177.088 116.137 176.956 116.428L174.16 125.589C172.992 129.926 167.836 133.693 162.041 129.37C161.479 126.129 161.493 123.465 161.493 123.465C162.154 125.971 164.798 121.683 164.798 121.683C172.096 122.679 177.137 114.973 177.137 114.973L177.34 115.565L177.34 115.564Z" fill="black"/>
</g>
<g opacity="0.2">
<path d="M170.35 96.391C170.35 96.391 177.29 95.1083 176.162 109.638L177.102 112.86C177.102 112.86 183.575 100.346 172.8 86.1172L173.27 92.6164L172.337 94.3909" fill="black"/>
</g>
<g opacity="0.2">
<path d="M214.747 118.262C214.38 118.624 213.905 119.077 213.354 119.588C212.599 109.036 201.176 118.243 201.176 118.243C201.176 118.243 198.951 113.809 193.63 107.571C188.309 101.333 179.421 103.247 179.421 103.247L178.441 94.7937C181.45 94.9974 191.682 95.9676 195.243 99.7415C198.777 103.49 202.771 109.175 203.937 110.866C204.124 111.137 204.483 111.22 204.769 111.056C206.774 109.912 214.225 106.365 215.512 116.053C215.618 116.868 215.334 117.686 214.747 118.262H214.747Z" fill="black"/>
</g>
<g opacity="0.2">
<path d="M189.82 113.214L188.162 114.98C188.078 114.828 187.998 114.676 187.917 114.52C187.917 114.52 183.238 115.041 177.942 115.154L177.34 114.52L179.613 103.71C179.613 103.71 179.887 111.484 189.821 113.214H189.82Z" fill="black"/>
</g>
<path d="M153.983 239.331C152.454 243.17 150.113 247.257 146.546 251.119C145.775 251.953 144.437 251.899 143.737 250.999L141.676 248.348L144.05 241.589L150.916 222.047L155.111 222.444C156.04 222.532 156.759 223.298 156.778 224.233C156.843 226.962 156.594 232.783 153.982 239.331H153.983Z" fill="#B58024"/>
<path d="M161.162 214.016C160.766 214.317 160.265 214.505 159.688 214.508H159.547C154.819 214.508 151.214 216.109 150.22 218.651L139.562 211.136L130.825 204.976C130.825 204.976 142.084 193.457 161.302 210.14C162.588 211.259 162.328 213.135 161.163 214.017L161.162 214.016Z" fill="#F5C10E"/>
<g opacity="0.6">
<path d="M162.11 212.487L162.107 212.484C146.495 198.93 136.136 203.988 132.798 206.365L130.825 204.974C130.825 204.974 142.083 193.456 161.301 210.139C162.043 210.782 162.269 211.675 162.11 212.486V212.487Z" fill="#F3F3F3"/>
</g>
<path d="M146.704 263.672C146.698 264.839 145.824 265.997 144.424 266.023C132.992 266.211 126.219 263.326 122.214 259.934C116.763 255.332 116.422 249.796 116.422 249.796L138.974 250.469H138.99C138.713 251.051 138.542 251.688 138.48 252.358C138.187 255.481 140.219 259.265 144.201 260.995C144.804 261.257 145.304 261.532 145.713 261.81C146.4 262.279 146.704 262.977 146.704 263.673L146.704 263.672Z" fill="#F5C10E"/>
<path d="M141.403 248.668C139.951 250.311 137.836 251.222 135.646 251.18C128.912 251.054 122.085 250.54 115.289 249.65C92.3793 246.665 69.8655 239.451 52.7988 228.585H52.7955C38.8538 219.708 28.5439 208.393 24.6255 194.953C24.1775 193.424 24.6963 191.784 25.9186 190.762C36.1742 182.173 52.2185 179.744 71.0779 182.622C88.9473 185.345 109.345 192.835 129.734 204.357C135.707 207.73 141.679 211.452 147.584 215.498C149.49 216.804 150.706 218.906 150.867 221.215C151.274 226.939 150.613 238.225 141.402 248.667L141.403 248.668Z" fill="white"/>
<path d="M52.7995 228.585H52.7962C38.8545 219.708 28.5446 208.393 24.6262 194.953C24.1782 193.424 24.697 191.784 25.9193 190.762C36.1749 182.173 52.2191 179.744 71.0785 182.622C71.0785 182.622 78.4898 213.02 52.7995 228.585Z" fill="#F5C10E"/>
<g opacity="0.6">
<path d="M25.916 197.602C26.4964 199.591 27.2157 201.534 28.0668 203.429C26.6347 200.706 25.4772 197.88 24.6255 194.953C24.1775 193.423 24.6963 191.783 25.9186 190.761C36.1742 182.173 52.2185 179.744 71.0779 182.622C71.0779 182.622 71.3035 183.544 71.5391 185.147C53.0377 182.467 37.3125 184.947 27.2084 193.41C25.9861 194.432 25.4666 196.072 25.9153 197.601L25.916 197.602Z" fill="#F3F3F3"/>
</g>
<path d="M141.403 248.668C139.951 250.311 137.836 251.222 135.646 251.18C128.912 251.054 122.085 250.54 115.289 249.65C128.654 234.367 130.018 215.899 129.927 208.108C129.898 205.809 129.743 204.438 129.734 204.357C135.707 207.73 141.679 211.452 147.584 215.498C149.171 216.587 150.28 218.227 150.697 220.08C150.784 220.451 150.842 220.83 150.867 221.215C151.274 226.939 150.613 238.224 141.402 248.666L141.403 248.668Z" fill="#F5C10E"/>
<g opacity="0.2">
<path d="M141.403 248.668C139.951 250.311 137.836 251.222 135.646 251.18C128.912 251.054 122.085 250.54 115.289 249.65C92.3793 246.666 69.8655 239.451 52.7988 228.585H52.7955C38.8538 219.708 28.5439 208.393 24.6255 194.953C24.1775 193.424 24.6963 191.784 25.9186 190.762C26.0576 190.646 26.1959 190.533 26.3382 190.419C31.3982 200.638 40.3057 209.424 51.5964 216.613H51.5997C59.7912 221.83 69.2375 226.205 79.3832 229.671C77.1676 227.097 75.8328 223.747 75.8328 220.08C75.8328 211.953 82.4023 205.366 90.5064 205.366C98.6106 205.366 105.18 211.953 105.18 220.08C105.18 226.693 100.83 232.287 94.8411 234.141C101.149 235.651 107.606 236.834 114.091 237.678C120.886 238.568 127.713 239.082 134.447 239.208C136.637 239.25 138.753 238.338 140.204 236.696C146.132 229.976 148.518 222.903 149.357 217.193C150.231 218.344 150.766 219.737 150.869 221.215C151.276 226.939 150.615 238.225 141.404 248.667L141.403 248.668Z" fill="black"/>
</g>
<g opacity="0.6">
<path d="M150.697 220.08C143.276 214.715 132.453 209.163 129.928 208.108C129.899 205.809 129.744 204.438 129.735 204.357C135.707 207.73 141.68 211.452 147.585 215.498C149.172 216.587 150.281 218.227 150.697 220.08L150.697 220.08Z" fill="#F3F3F3"/>
</g>
<path d="M135.791 252.152C135.736 252.152 135.682 252.152 135.627 252.151C111.132 251.686 85.5848 246.034 65.5361 236.644C42.9866 226.083 28.5188 211.76 23.6957 195.225C23.1458 193.338 23.7745 191.294 25.2979 190.019C31.0223 185.225 38.5858 182.204 47.7773 181.038C56.5803 179.923 66.6638 180.53 77.7506 182.843C99.911 187.467 124.906 198.78 148.132 214.697C150.3 216.183 151.649 218.534 151.834 221.146C152.253 227.079 151.55 238.626 142.126 249.309C140.527 251.121 138.225 252.152 135.791 252.152H135.791ZM56.7318 182.466C44.2771 182.466 33.8322 185.4 26.5381 191.508C25.6056 192.289 25.2191 193.534 25.5533 194.68C31.4425 214.875 50.9922 227.691 66.3548 234.886C86.1671 244.165 111.429 249.751 135.664 250.21C137.576 250.252 139.418 249.45 140.677 248.023C149.633 237.871 150.302 226.913 149.903 221.284C149.761 219.265 148.717 217.449 147.04 216.299C115.072 194.391 81.8278 182.466 56.7311 182.466H56.7318Z" fill="black"/>
<path d="M52.8002 229.395C52.5268 229.395 52.2608 229.256 52.1093 229.004C51.879 228.622 52.0014 228.125 52.3826 227.895C62.8036 221.581 68.9886 212.098 70.7675 199.709C72.101 190.419 70.3142 182.89 70.2963 182.815C70.1911 182.381 70.4558 181.944 70.8886 181.838C71.3201 181.73 71.7569 181.998 71.8627 182.431C71.9395 182.748 73.7369 190.293 72.3717 199.883C71.1077 208.764 66.7584 221.074 53.2164 229.279C53.086 229.358 52.9424 229.396 52.8002 229.396V229.395Z" fill="black"/>
<path d="M115.285 250.461C115.097 250.461 114.907 250.394 114.754 250.26C114.419 249.966 114.386 249.455 114.679 249.119C131.671 229.695 128.964 204.7 128.935 204.449C128.882 204.006 129.199 203.605 129.641 203.552C130.085 203.501 130.483 203.817 130.536 204.26C130.567 204.523 131.281 210.813 129.847 219.656C128.524 227.819 125.028 239.742 115.892 250.186C115.732 250.368 115.509 250.461 115.285 250.461L115.285 250.461Z" fill="black"/>
<path d="M150.22 219.621C150.103 219.621 149.984 219.599 149.868 219.554C149.371 219.358 149.124 218.795 149.32 218.296C150.466 215.362 154.385 213.538 159.548 213.538H159.682C160.453 213.533 160.915 213.02 161.091 212.543C161.175 212.311 161.397 211.507 160.666 210.872C153.029 204.242 145.538 201.265 139.002 202.26C134.161 202.997 131.543 205.627 131.516 205.654C131.142 206.036 130.529 206.043 130.148 205.668C129.766 205.293 129.76 204.679 130.134 204.296C130.258 204.169 133.237 201.175 138.711 200.342C143.671 199.587 151.726 200.545 161.932 209.407C163.025 210.356 163.407 211.851 162.905 213.216C162.402 214.581 161.141 215.469 159.693 215.478H159.546C155.264 215.478 151.956 216.863 151.12 219.004C150.97 219.387 150.605 219.621 150.218 219.621H150.22Z" fill="black"/>
<path d="M143.394 267C129.788 267 122.943 262.526 119.583 258.718C115.777 254.406 115.467 250.039 115.456 249.856C115.423 249.321 115.829 248.861 116.362 248.828C116.9 248.794 117.353 249.2 117.387 249.733C117.391 249.78 117.698 253.712 121.115 257.527C125.683 262.626 133.739 265.233 144.409 265.052C145.132 265.04 145.537 264.539 145.676 264.073C145.741 263.855 145.895 263.105 145.172 262.613C144.795 262.356 144.339 262.111 143.817 261.884C141.115 260.71 139.009 258.54 138.04 255.931C137.279 253.883 137.308 251.737 138.12 250.046C138.353 249.563 138.931 249.361 139.412 249.593C139.894 249.825 140.096 250.405 139.864 250.888C139.279 252.106 139.275 253.698 139.853 255.254C140.64 257.371 142.366 259.139 144.587 260.105C145.22 260.379 145.782 260.683 146.259 261.008C147.445 261.815 147.944 263.235 147.531 264.628C147.111 266.04 145.898 266.968 144.442 266.992C144.089 266.998 143.739 267.001 143.395 267.001L143.394 267Z" fill="black"/>
<path d="M145.193 252.68C145.153 252.68 145.113 252.68 145.073 252.678C144.247 252.642 143.482 252.248 142.974 251.594L140.915 248.944C140.586 248.522 140.661 247.912 141.083 247.583C141.505 247.253 142.113 247.329 142.441 247.751L144.501 250.401C144.717 250.68 145.004 250.732 145.156 250.739C145.311 250.746 145.598 250.717 145.837 250.458C155.157 240.367 155.919 228.771 155.814 224.254C155.804 223.814 155.463 223.451 155.021 223.409L150.826 223.011C150.294 222.96 149.903 222.487 149.953 221.954C150.004 221.42 150.477 221.031 151.008 221.079L155.203 221.477C156.621 221.612 157.715 222.787 157.748 224.209C157.858 228.963 157.058 241.165 147.257 251.776C146.723 252.355 145.976 252.68 145.193 252.68Z" fill="black"/>
<path d="M100.156 225.559C105.887 219.813 105.887 210.497 100.156 204.75C94.4258 199.004 85.135 199.004 79.4045 204.75C73.6741 210.497 73.6741 219.813 79.4045 225.559C85.1349 231.305 94.4258 231.305 100.156 225.559Z" fill="#B58024"/>
<path d="M89.7805 230.839C81.1555 230.839 74.1393 223.803 74.1393 215.155C74.1393 206.507 81.1561 199.471 89.7805 199.471C98.4048 199.471 105.422 206.507 105.422 215.155C105.422 223.803 98.4048 230.839 89.7805 230.839ZM89.7805 201.412C82.2229 201.412 76.0743 207.577 76.0743 215.155C76.0743 222.734 82.2229 228.899 89.7805 228.899C97.338 228.899 103.487 222.734 103.487 215.155C103.487 207.577 97.338 201.412 89.7805 201.412Z" fill="black"/>
<path d="M100.207 215.155C100.207 220.93 95.5399 225.61 89.7805 225.61C88.2934 225.61 86.8812 225.3 85.604 224.734C84.0653 224.064 82.7206 223.029 81.679 221.739C81.0278 220.934 80.4924 220.028 80.1019 219.051C79.6182 217.848 79.3535 216.532 79.3535 215.155C79.3535 209.379 84.0203 204.7 89.7798 204.7C91.1537 204.7 92.466 204.965 93.6658 205.45C94.6399 205.842 95.5426 206.378 96.346 207.031C97.6325 208.076 98.6649 209.424 99.3326 210.967C99.8971 212.248 100.207 213.664 100.207 215.155Z" fill="#B58024"/>
<g opacity="0.77">
<path d="M93.6664 205.45L80.1019 219.052C79.6182 217.849 79.3535 216.533 79.3535 215.155C79.3535 209.38 84.0203 204.7 89.7798 204.7C91.1537 204.7 92.466 204.966 93.6658 205.451L93.6664 205.45Z" fill="#F6F6F6"/>
</g>
<g opacity="0.77">
<path d="M99.3326 210.967L85.604 224.734C84.0653 224.064 82.7206 223.029 81.679 221.739L96.346 207.031C97.6325 208.076 98.6649 209.424 99.3326 210.967Z" fill="#F6F6F6"/>
</g>
<g opacity="0.3">
<path d="M99.9679 212.933C99.3227 211.76 98.4524 210.725 97.4201 209.887C96.6173 209.234 95.714 208.697 94.7399 208.306C93.54 207.82 92.2277 207.555 90.8539 207.555C85.0937 207.555 80.4275 212.234 80.4275 218.01C80.4275 218.773 80.5083 219.517 80.6664 220.235C80.4533 219.857 80.2667 219.459 80.1019 219.051C79.6182 217.848 79.3535 216.532 79.3535 215.155C79.3535 209.379 84.0203 204.7 89.7798 204.7C91.1537 204.7 92.466 204.965 93.6658 205.45C94.6399 205.842 95.5426 206.378 96.346 207.031C97.6325 208.076 98.6649 209.424 99.3326 210.967C99.6099 211.591 99.823 212.251 99.9679 212.933Z" fill="#000070"/>
</g>
<path d="M89.7805 226.418C88.2081 226.418 86.6933 226.1 85.2777 225.473C83.6445 224.762 82.1813 223.646 81.0523 222.248C80.3415 221.369 79.7697 220.395 79.3535 219.352C78.8188 218.023 78.5474 216.61 78.5474 215.155C78.5474 208.944 83.5862 203.891 89.7805 203.891C91.2318 203.891 92.6407 204.163 93.9682 204.7C95.0072 205.118 95.9787 205.691 96.8549 206.404C98.2486 207.535 99.3617 209.002 100.072 210.645C100.696 212.06 101.013 213.579 101.013 215.155C101.013 221.365 95.9741 226.418 89.7805 226.418ZM89.7805 205.509C84.4757 205.509 80.1602 209.836 80.1602 215.155C80.1602 216.402 80.3925 217.611 80.8498 218.75C81.2065 219.643 81.6962 220.477 82.305 221.23C83.2719 222.428 84.5233 223.383 85.9243 223.992C87.138 224.531 88.4338 224.802 89.7798 224.802C95.0847 224.802 99.4001 220.475 99.4001 215.155C99.4001 213.805 99.1295 212.506 98.5947 211.294C97.9846 209.884 97.0323 208.629 95.8384 207.66C95.0873 207.049 94.2554 206.558 93.366 206.201C92.2297 205.741 91.0233 205.509 89.7798 205.509H89.7805Z" fill="black"/>
<path d="M126.804 226.548C132.663 226.093 145.15 226.6 156.213 236.839C157.155 237.711 156.606 239.29 155.326 239.375C150.063 239.722 138.605 239.034 126.018 229.156C124.97 228.334 125.477 226.651 126.804 226.548Z" fill="#F5C10E"/>
<g opacity="0.3">
<path d="M155.325 239.373C150.7 239.68 141.28 239.185 130.521 232.346C138.422 235.803 145.03 236.059 148.674 235.816C149.955 235.731 150.503 234.153 149.561 233.28C147.936 231.776 146.278 230.483 144.614 229.37C148.429 230.945 152.406 233.315 156.211 236.837C157.153 237.71 156.605 239.288 155.325 239.373V239.373Z" fill="#000070"/>
</g>
<g opacity="0.6">
<path d="M156.679 238.031C145.811 228.462 133.762 227.99 128.041 228.433C127.287 228.492 126.8 229.06 126.709 229.688C126.48 229.517 126.248 229.339 126.019 229.158C124.971 228.333 125.477 226.651 126.802 226.548C132.663 226.092 145.15 226.6 156.211 236.838C156.573 237.175 156.714 237.615 156.679 238.031Z" fill="#F3F3F3"/>
</g>
<path d="M153.223 240.412C147.015 240.412 136.667 238.745 125.423 229.92C124.628 229.297 124.304 228.269 124.595 227.301C124.886 226.334 125.724 225.658 126.73 225.58C133.191 225.08 145.694 225.783 156.869 236.126C157.596 236.798 157.843 237.797 157.514 238.73C157.185 239.66 156.372 240.278 155.39 240.343C154.74 240.385 154.015 240.412 153.223 240.412H153.223ZM126.879 227.515C126.576 227.539 126.476 227.766 126.447 227.862C126.418 227.959 126.376 228.204 126.614 228.392C138.787 237.945 149.786 238.768 155.262 238.406C155.551 238.387 155.656 238.173 155.688 238.083C155.722 237.99 155.774 237.753 155.556 237.551C144.921 227.708 133.023 227.04 126.879 227.514V227.515Z" fill="black"/>
<g opacity="0.3">
<path d="M146.704 263.672C139.289 263.359 135.178 259.937 133.009 257.03C131.702 255.28 129.405 254.574 127.375 255.368C124.761 256.391 122.579 257.857 122.214 259.933C116.763 255.331 116.422 249.796 116.422 249.796L138.974 250.469L138.042 252.386L138.481 252.357C138.188 255.481 140.219 259.265 144.202 260.995C144.805 261.257 145.305 261.531 145.714 261.809C146.401 262.279 146.704 262.977 146.704 263.672Z" fill="#000070"/>
</g>
<g opacity="0.3">
<path d="M161.162 214.016C160.766 214.317 160.265 214.505 159.688 214.508H159.547C154.819 214.508 151.214 216.109 150.22 218.651C148.118 215.254 144.365 212.872 139.562 211.136C139.765 210.968 139.98 210.803 140.216 210.638C147.598 205.477 161.162 214.017 161.162 214.017V214.016Z" fill="#000070"/>
</g>
<g opacity="0.3">
<path d="M153.983 239.331C152.454 243.17 150.113 247.257 146.546 251.119C145.775 251.953 144.437 251.899 143.737 250.999L141.679 248.351C143.485 246.262 144.952 244.141 146.14 242.039C149.513 242.443 152.086 241.124 153.983 239.332V239.331Z" fill="#000070"/>
</g>
<path d="M96.3677 39.0788C99.0462 34.6847 100.366 29.4085 99.8014 23.8901C98.43 10.4949 86.4882 0.751147 73.1296 2.12633C59.771 3.50152 50.054 15.4761 51.4254 28.8713C52.7968 42.2665 64.7386 52.0103 78.0972 50.6351C81.8133 50.252 85.2456 49.0485 88.2372 47.2228L99.4896 49.753L96.3677 39.0788Z" fill="#339933"/>
<g opacity="0.5">
<path d="M73.6086 6.79057C86.0875 5.50637 97.3268 13.9248 99.8706 25.9581C99.8735 25.098 99.8369 24.2306 99.7476 23.3574C98.3762 9.96216 86.4344 0.218432 73.0758 1.59362C59.7173 2.96881 50.0002 14.9434 51.3716 28.3386C51.4609 29.2162 51.6 30.0778 51.7771 30.9231C51.8239 18.6169 61.1253 8.07623 73.6071 6.79203L73.6086 6.79057Z" fill="white"/>
</g>
<path d="M75.5653 52.7587C69.541 52.7587 63.748 50.7026 59.0117 46.8383C53.5626 42.3913 50.1669 36.0819 49.4483 29.0738C48.7311 22.0658 50.7773 15.1957 55.2121 9.73168C59.6469 4.26762 65.939 0.862672 72.9279 0.142056C79.9182 -0.581495 86.768 1.47615 92.2171 5.92166C97.6662 10.3686 101.062 16.6781 101.78 23.6861C102.342 29.1766 101.217 34.5716 98.518 39.3444L101.398 49.1894C101.597 49.866 101.423 50.5984 100.942 51.1135C100.46 51.6301 99.7445 51.8517 99.0552 51.6947L88.5682 49.3362C85.4039 51.137 81.9541 52.2392 78.3009 52.6149C77.3861 52.7088 76.4728 52.7558 75.5653 52.7558V52.7587ZM75.6561 3.99023C74.8862 3.99023 74.1105 4.02986 73.3348 4.11058C67.4027 4.72112 62.0619 7.61239 58.2974 12.2502C54.533 16.8879 52.7956 22.7189 53.4045 28.6688C54.0134 34.6171 56.8967 39.9726 61.5218 43.7474C66.1469 47.5207 71.9619 49.2599 77.8954 48.6537C81.2281 48.3103 84.3603 47.2565 87.2056 45.5203C87.6447 45.2517 88.1687 45.1666 88.6736 45.2781L96.6329 47.0687L94.4608 39.6409C94.3028 39.1008 94.3789 38.5196 94.6731 38.0397C97.2388 33.8305 98.3292 29.0092 97.8257 24.0956C97.2168 18.1472 94.3335 12.7917 89.7084 9.01693C85.6878 5.73674 80.77 3.9917 75.6576 3.9917L75.6561 3.99023Z" fill="black"/>
<g opacity="0.2">
<path d="M96.5041 38.844C89.8445 44.493 80.669 46.966 71.5579 44.6926C61.453 42.1712 54.009 34.4558 51.3305 25.0907C51.2661 26.3323 51.2954 27.5945 51.4257 28.8699C52.7971 42.2651 64.7389 52.0089 78.0974 50.6337C81.8136 50.2506 85.2458 49.0471 88.2375 47.2214L99.4899 49.7516L96.368 39.0774C96.4148 38.9996 96.4587 38.9204 96.5041 38.8426V38.844Z" fill="black"/>
</g>
<path d="M71.2313 37.3958C71.1275 37.3958 71.0254 37.3686 70.9353 37.317C70.8452 37.2653 70.7701 37.1909 70.7176 37.1012C68.4909 33.3016 62.5575 25.2151 62.4978 25.1338C62.413 25.0184 62.3726 24.8763 62.3838 24.7334C62.395 24.5906 62.4572 24.4565 62.5589 24.3558L64.3828 22.5506C64.4819 22.4525 64.6122 22.3923 64.751 22.3805C64.8898 22.3687 65.0284 22.4059 65.1426 22.4858L71.1071 26.6574C75.0725 21.555 78.7576 18.0337 81.1797 15.9589C83.8946 13.6329 85.6207 12.5877 85.6928 12.5442C85.7854 12.4885 85.8914 12.4591 85.9994 12.4591H88.95C89.0707 12.4591 89.1887 12.4958 89.2881 12.5645C89.3875 12.6331 89.4638 12.7304 89.5068 12.8435C89.5497 12.9565 89.5574 13.08 89.5287 13.1975C89.5 13.315 89.4364 13.421 89.3462 13.5014C84.9719 17.4036 80.4241 23.6037 77.3794 28.1176C74.0695 33.0242 71.7718 37.0543 71.749 37.0945C71.6972 37.1854 71.6226 37.2611 71.5324 37.314C71.4422 37.3669 71.3397 37.3951 71.2352 37.3958L71.2313 37.3958Z" fill="white"/>
</svg>
