<svg width="90" height="90" viewBox="0 0 90 90" fill="none" xmlns="http://www.w3.org/2000/svg">
<path d="M88.8495 31.3547L86.069 29.0397C87.4452 26.319 88.2171 23.2576 88.2171 20.0499C88.2171 16.4227 87.2337 12.8703 85.3747 9.778C84.9936 9.14484 84.1723 8.94089 83.5398 9.32133C82.9074 9.70177 82.7027 10.5231 83.0832 11.1556C84.6928 13.8317 85.5437 16.9075 85.5437 20.0492C85.5437 28.2926 79.6839 35.4269 71.6095 37.0118C70.5114 37.2281 69.3832 37.338 68.2569 37.338C58.7246 37.338 50.9695 29.5822 50.9695 20.0492C50.9695 10.5176 58.7246 2.76249 68.2569 2.76249C69.3832 2.76249 70.5107 2.87237 71.6095 3.08868C74.7389 3.70329 77.6368 5.17836 79.9909 7.35594C80.5327 7.85656 81.3787 7.8236 81.88 7.28178C82.3813 6.73996 82.3477 5.89392 81.8059 5.39262C79.0878 2.87923 75.7401 1.17549 72.1259 0.465423C70.8575 0.216144 69.5562 0.0891015 68.2569 0.0891015C63.7253 0.0891015 59.5432 1.60812 56.1886 4.16202L55.9517 3.96425C49.6064 -1.32142 40.3941 -1.32142 34.0467 3.96425L33.4459 4.46555H20.927C14.8434 4.46555 9.89353 9.41403 9.89353 15.497V24.1647L0.850156 31.6939C0.823374 31.7049 0.796592 31.7159 0.76981 31.7289C0.300095 31.9487 0.000686717 32.4204 0.000686717 32.9389V69.7009C0.000686717 70.4392 0.598817 71.0373 1.33704 71.0373C2.07526 71.0373 2.67408 70.4392 2.67408 69.7009V35.7915L34.0474 61.9143C37.2208 64.5567 41.1103 65.8787 44.9999 65.878C48.8895 65.878 52.779 64.5567 55.951 61.9143L87.3257 35.7915V80.2887C87.3257 84.1749 84.1647 87.3358 80.2786 87.3358H9.72048C5.83435 87.3358 2.67339 84.1749 2.67339 80.2887V75.0477C2.67339 74.3095 2.07457 73.7114 1.33635 73.7114C0.598817 73.7114 0 74.3095 0 75.0477V80.2887C0 85.6486 4.36065 90.0092 9.72048 90.0092H80.2786C85.6384 90.0092 89.9991 85.6486 89.9991 80.2887V32.9753C89.9991 32.9746 89.9991 32.9739 89.9991 32.9732C90.0156 32.3257 89.815 32.1588 88.8495 31.3547ZM51.9632 4.46555H38.0359C42.3643 2.07921 47.6362 2.07921 51.9632 4.46555ZM9.89353 27.6429V38.3241L3.4796 32.9835L9.89353 27.6429ZM54.2404 59.8603C48.8867 64.3198 41.1138 64.3198 35.758 59.8596L12.5669 40.5498V15.497C12.5669 10.8877 16.3171 7.13825 20.927 7.13825H33.9341H33.9389H53.0475C50.0864 10.6213 48.2968 15.1303 48.2968 20.0499C48.2968 31.0566 57.2509 40.0114 68.2569 40.0114C69.5562 40.0114 70.8582 39.8851 72.1252 39.6351C74.0116 39.2649 75.7916 38.6284 77.4335 37.7755V40.5491L54.2404 59.8603ZM80.1069 38.3235V36.1081C81.8883 34.7896 83.4368 33.1854 84.6887 31.3691C85.2731 31.8553 85.9804 32.4445 86.5744 32.9389L80.1069 38.3235Z" fill="black"/>
<path d="M79.6604 82.9222C79.9104 83.1302 80.2132 83.2319 80.5146 83.2319C80.8978 83.2319 81.2782 83.0677 81.5425 82.7498C82.0149 82.1826 81.938 81.34 81.3702 80.8675L60.0602 63.1228C59.493 62.6503 58.6505 62.7272 58.1774 63.2951C57.7057 63.8624 57.7826 64.705 58.3497 65.1774L79.6604 82.9222Z" fill="black"/>
<path d="M9.47576 83.2312C9.77719 83.2312 10.0807 83.1303 10.3306 82.9222L31.6413 65.1768C32.2085 64.705 32.2854 63.8617 31.813 63.2945C31.3406 62.7273 30.4981 62.6504 29.9309 63.1228L8.62088 80.8676C8.05303 81.34 7.97612 82.1826 8.44854 82.7498C8.71221 83.0678 9.0933 83.2312 9.47576 83.2312Z" fill="black"/>
<path d="M25.3943 39.7011H53.5494C54.2876 39.7011 54.8857 39.1023 54.8857 38.3641C54.8857 37.6258 54.2876 37.0277 53.5494 37.0277H25.3943C24.6561 37.0277 24.0574 37.6258 24.0574 38.3641C24.0574 39.1023 24.6561 39.7011 25.3943 39.7011Z" fill="black"/>
<path d="M64.5969 44.7903H25.3943C24.6561 44.7903 24.0574 45.3891 24.0574 46.1273C24.0574 46.8655 24.6561 47.4637 25.3943 47.4637H64.5969C65.3357 47.4637 65.9338 46.8655 65.9338 46.1273C65.9338 45.3891 65.335 44.7903 64.5969 44.7903Z" fill="black"/>
<path d="M25.3943 24.1751H44.9959C45.734 24.1751 46.3321 23.5763 46.3321 22.8381C46.3321 22.1005 45.734 21.5017 44.9959 21.5017H25.3943C24.6561 21.5017 24.0574 22.1005 24.0574 22.8381C24.0574 23.5763 24.6561 24.1751 25.3943 24.1751Z" fill="black"/>
<path d="M37.1983 30.6014C37.1983 31.3397 37.7971 31.9378 38.5352 31.9378H48.2032C48.9413 31.9378 49.5394 31.3397 49.5394 30.6014C49.5394 29.8632 48.9413 29.2644 48.2032 29.2644H38.5352C37.7971 29.2644 37.1983 29.8632 37.1983 30.6014Z" fill="black"/>
<path d="M25.3943 31.9378H34.0796C34.8178 31.9378 35.4165 31.3397 35.4165 30.6014C35.4165 29.8632 34.8178 29.2644 34.0796 29.2644H25.3943C24.6561 29.2644 24.0574 29.8632 24.0574 30.6014C24.0574 31.3397 24.6561 31.9378 25.3943 31.9378Z" fill="black"/>
<path d="M74.9514 10.9325L67.7883 27.6486L61.4341 20.081C60.9596 19.5158 60.1171 19.4423 59.5513 19.9168C58.9862 20.392 58.9128 21.2353 59.3879 21.8005L67.1381 31.0306C67.3942 31.3355 67.7698 31.5079 68.1612 31.5079C68.2257 31.5079 68.291 31.5031 68.3569 31.4935C68.8155 31.4255 69.2069 31.1247 69.3896 30.6976L77.4082 11.9853C77.6994 11.3068 77.3849 10.5212 76.7065 10.23C76.0281 9.93955 75.2425 10.2541 74.9514 10.9325Z" fill="black"/>
</svg>
