<svg width="22" height="22" viewBox="0 0 22 22" fill="none" xmlns="http://www.w3.org/2000/svg">
<path d="M15.5 8.375C15.5 10.8603 13.4853 12.875 11 12.875C8.51472 12.875 6.5 10.8603 6.5 8.375C6.5 5.88972 8.51472 3.875 11 3.875C13.4853 3.875 15.5 5.88972 15.5 8.375Z" stroke="white" stroke-width="1.5" stroke-miterlimit="10"/>
<mask id="path-2-inside-1_659_5277" fill="white">
<path d="M3.04205 18.218C3.84888 16.8214 5.00901 15.6618 6.4059 14.8556C7.80278 14.0494 9.38723 13.625 11.0001 13.625C12.6129 13.625 14.1974 14.0495 15.5942 14.8557C16.9911 15.662 18.1512 16.8216 18.958 18.2181"/>
</mask>
<path d="M4.34087 18.9684C5.01602 17.7998 5.9868 16.8294 7.1557 16.1548L5.65609 13.5565C4.03122 14.4943 2.68174 15.8431 1.74323 17.4676L4.34087 18.9684ZM7.1557 16.1548C8.3246 15.4801 9.65045 15.125 11.0001 15.125L11.0001 12.125C9.12401 12.125 7.28096 12.6187 5.65609 13.5565L7.1557 16.1548ZM11.0001 15.125C12.3497 15.125 13.6755 15.4802 14.8444 16.1548L16.3441 13.5566C14.7192 12.6187 12.8762 12.125 11.0001 12.125L11.0001 15.125ZM14.8444 16.1548C16.0133 16.8295 16.9841 17.7999 17.6592 18.9685L20.2568 17.4678C19.3184 15.8433 17.9689 14.4944 16.3441 13.5566L14.8444 16.1548Z" fill="white" mask="url(#path-2-inside-1_659_5277)"/>
</svg>
